<svg width="186" height="185" viewBox="0 0 186 185" fill="none" xmlns="http://www.w3.org/2000/svg">
<path d="M92.9125 0C41.6796 0 0 41.4968 0 92.4994C0 143.504 41.6796 185 92.9125 185C144.147 185 185.826 143.504 185.826 92.4994C185.826 41.4968 144.147 0 92.9125 0ZM92.9125 182.028C43.325 182.028 2.98863 141.866 2.98863 92.4994C2.98863 43.1356 43.325 2.97539 92.9125 2.97539C142.499 2.97539 182.842 43.1356 182.842 92.4994C182.842 141.866 142.499 182.028 92.9125 182.028Z" fill="white"/>
<path d="M163.967 92.8251L163.777 95.3045L167.827 98.0893L163.397 100.274L163.201 102.799L169.708 99.3645L174.218 99.7111L174.382 97.5645L169.885 97.2239L163.967 92.8251Z" fill="white"/>
<path d="M164.827 103.831L163.053 103.44L161.218 111.74L162.993 112.131L163.682 109.03L172.399 110.938L172.862 108.831L164.145 106.922L164.827 103.831Z" fill="white"/>
<path d="M159.959 115.345L170.169 118.671L170.844 116.621L160.635 113.287L159.959 115.345Z" fill="white"/>
<path d="M166.281 120.513C165.664 120.237 165.082 120.134 164.545 120.204C164.006 120.275 163.512 120.487 163.062 120.839C162.61 121.186 162.059 121.789 161.397 122.647C160.738 123.504 160.248 124.008 159.924 124.167C159.671 124.288 159.428 124.295 159.195 124.19C158.942 124.075 158.788 123.884 158.73 123.606C158.64 123.176 158.723 122.676 158.985 122.103C159.232 121.549 159.532 121.182 159.875 121.002C160.222 120.824 160.667 120.804 161.209 120.947L162.01 118.937C161.096 118.567 160.234 118.57 159.413 118.945C158.594 119.325 157.911 120.127 157.357 121.349C157.018 122.103 156.841 122.792 156.83 123.423C156.814 124.056 156.963 124.609 157.273 125.09C157.581 125.563 157.981 125.915 158.48 126.136C159.256 126.48 160.046 126.48 160.857 126.12C161.435 125.865 162.09 125.268 162.834 124.331C163.407 123.603 163.787 123.14 163.971 122.945C164.246 122.663 164.493 122.489 164.716 122.425C164.939 122.364 165.166 122.383 165.4 122.489C165.759 122.651 166.003 122.953 166.129 123.397C166.252 123.841 166.17 124.378 165.884 125.013C165.611 125.612 165.245 126.016 164.783 126.234C164.323 126.452 163.742 126.477 163.042 126.3L162.364 128.299C163.516 128.664 164.532 128.64 165.403 128.237C166.273 127.831 166.987 127.008 167.548 125.777C167.929 124.932 168.13 124.173 168.149 123.498C168.166 122.821 167.999 122.217 167.651 121.69C167.3 121.155 166.843 120.766 166.281 120.513Z" fill="white"/>
<path d="M159.757 132.087C159.313 132.165 158.853 132.326 158.366 132.568C158.765 131.707 158.872 130.938 158.691 130.256C158.506 129.576 158.078 129.017 157.397 128.582C156.868 128.239 156.308 128.061 155.722 128.057C155.138 128.052 154.627 128.212 154.181 128.544C153.735 128.873 153.202 129.52 152.574 130.479L150.094 134.297L159.111 140.108L160.29 138.296L156.527 135.871L156.766 135.502C157.037 135.085 157.268 134.805 157.461 134.655C157.654 134.504 157.895 134.409 158.192 134.351C158.484 134.297 159.132 134.261 160.136 134.253L162.951 134.206L164.361 132.039L161.889 131.999C160.911 131.982 160.195 132.008 159.757 132.087ZM156.909 131.899C156.843 132.164 156.527 132.729 155.96 133.599L155.088 134.939L152.799 133.467L153.72 132.049C154.199 131.319 154.495 130.882 154.611 130.745C154.852 130.487 155.117 130.334 155.407 130.293C155.703 130.252 155.998 130.328 156.302 130.525C156.57 130.7 156.759 130.907 156.86 131.143C156.959 131.383 156.975 131.633 156.909 131.899Z" fill="white"/>
<path d="M151.431 146.434L149.244 144.496L152.827 140.483L151.473 139.287L147.892 143.302L146.111 141.726L149.961 137.412L148.604 136.211L143.312 142.137L151.341 149.242L156.773 143.164L155.419 141.967L151.431 146.434Z" fill="white"/>
<path d="M140.583 144.663L143.694 152.404L136.49 148.091L134.694 149.597L144.548 155.319L146.32 153.835L142.343 143.187L140.583 144.663Z" fill="white"/>
<path d="M131.682 151.475L137.702 160.336L139.5 159.126L133.48 150.265L131.682 151.475Z" fill="white"/>
<path d="M127.748 153.884L131.084 160.207L123.855 155.92L121.985 156.897L126.981 166.367L128.765 165.435L125.507 159.257L132.601 163.426L134.524 162.419L129.531 152.949L127.748 153.884Z" fill="white"/>
<path d="M119.549 157.93L117.496 158.621L119.394 164.227C119.667 165.032 119.831 165.614 119.888 165.98C119.944 166.345 119.865 166.697 119.649 167.032C119.433 167.368 119.034 167.637 118.452 167.83C117.879 168.025 117.383 168.049 116.966 167.911C116.55 167.771 116.227 167.513 115.999 167.125C115.858 166.883 115.645 166.327 115.351 165.455L113.487 159.966L111.431 160.657L113.267 166.063C113.649 167.199 114.01 168.035 114.338 168.569C114.564 168.927 114.882 169.239 115.294 169.5C115.707 169.758 116.203 169.914 116.783 169.968C117.36 170.024 118.137 169.889 119.106 169.561C119.912 169.292 120.531 168.969 120.961 168.595C121.39 168.223 121.696 167.813 121.878 167.369C122.059 166.921 122.122 166.43 122.064 165.889C122.002 165.348 121.764 164.471 121.352 163.253L119.549 157.93Z" fill="white"/>
<path d="M102.276 162.381L102.71 166.568L98.4807 167.002L98.048 162.814L95.8926 163.033L96.9913 173.675L99.1467 173.455L98.6656 168.799L102.895 168.367L103.375 173.019L105.536 172.8L104.437 162.159L102.276 162.381Z" fill="white"/>
<path d="M87.1581 165.283C87.6865 164.743 88.346 164.491 89.1398 164.534C89.716 164.566 90.1953 164.751 90.5814 165.092C90.9668 165.436 91.2068 165.887 91.3031 166.448L93.4763 166.053C93.2763 165.185 92.9459 164.511 92.4838 164.025C91.705 163.212 90.6613 162.77 89.3509 162.699C87.8471 162.617 86.6094 163.045 85.6307 163.981C84.6579 164.914 84.1229 166.271 84.0279 168.045C83.9354 169.73 84.3209 171.077 85.1869 172.095C86.0515 173.113 87.1974 173.658 88.6193 173.737C89.7711 173.797 90.7367 173.567 91.5162 173.042C92.2969 172.514 92.8791 171.678 93.2632 170.526L91.1995 169.751C90.9786 170.524 90.6476 171.082 90.2143 171.427C89.777 171.767 89.2729 171.923 88.698 171.89C87.9192 171.849 87.301 171.531 86.8448 170.931C86.3852 170.332 86.1945 169.356 86.2672 168.006C86.3367 166.73 86.6311 165.826 87.1581 165.283Z" fill="white"/>
<path d="M72.3388 171.162L80.3398 172.818L80.7069 171.054L74.8312 169.838L75.4265 166.99L80.7069 168.082L81.0766 166.316L75.7955 165.226L76.2793 162.901L81.955 164.075L82.3254 162.303L74.5284 160.689L72.3388 171.162Z" fill="white"/>
<path d="M64.783 157.348L64.1649 159.053L67.1653 160.13L64.1347 168.489L66.178 169.221L69.206 160.864L72.1979 161.938L72.8148 160.233L64.783 157.348Z" fill="white"/>
<path d="M56.6941 165.266L58.6503 166.198L63.2882 156.548L61.3319 155.616L56.6941 165.266Z" fill="white"/>
<path d="M45.0845 158.516L47.0381 159.73L49.0794 158.137L52.7216 160.399L52.2274 162.956L54.2294 164.198L56.2721 152.859L54.3205 151.648L45.0845 158.516ZM53.0927 158.503L50.6042 156.957L53.9482 154.359L53.0927 158.503Z" fill="white"/>
<path d="M48.003 147.081L45.2281 150.264L42.0212 147.489L44.7948 144.31L43.1526 142.896L36.1114 150.977L37.7516 152.39L40.8294 148.855L44.0403 151.628L40.9612 155.163L42.6007 156.576L49.6386 148.5L48.003 147.081Z" fill="white"/>
<path d="M34.6417 140.838L33.2506 141.994L34.8416 143.895L33.7927 144.765C33.387 144.674 32.9707 144.515 32.54 144.277C32.1119 144.041 31.7527 143.746 31.4603 143.399C30.871 142.698 30.6442 141.927 30.7713 141.084C30.8985 140.246 31.4524 139.421 32.4345 138.609C33.3457 137.856 34.2071 137.501 35.0265 137.546C35.8479 137.593 36.5605 137.981 37.1688 138.702C37.5667 139.181 37.7844 139.677 37.8139 140.193C37.848 140.707 37.7083 141.191 37.3989 141.642L39.085 143.035C39.7077 142.243 39.9955 141.381 39.9437 140.451C39.8965 139.52 39.4436 138.545 38.5913 137.526C37.9358 136.739 37.2508 136.196 36.5342 135.897C35.6007 135.502 34.6495 135.398 33.682 135.592C32.7118 135.79 31.7973 136.243 30.9392 136.953C30.1433 137.609 29.5442 138.377 29.1397 139.256C28.7306 140.137 28.6198 141.046 28.7896 141.986C28.9607 142.926 29.4065 143.825 30.1237 144.687C30.69 145.364 31.3764 145.924 32.188 146.371C32.9936 146.82 33.7108 147.076 34.3434 147.146L37.6342 144.418L34.6417 140.838Z" fill="white"/>
<path d="M32.7543 129.905L26.5647 133.519L30.5294 126.131L29.4635 124.318L20.1941 129.727L21.2141 131.457L27.2583 127.93L23.4056 135.178L24.505 137.045L33.7744 131.639L32.7543 129.905Z" fill="white"/>
<path d="M26.3234 116.87L14.7911 116.881L15.6269 119.012L18.2255 118.953L19.7844 122.937L17.8571 124.69L18.7126 126.879L27.1566 119.001L26.3234 116.87ZM21.22 121.633L20.1534 118.914L24.3981 118.816L21.22 121.633Z" fill="white"/>
<path d="M23.9923 109.42L19.8598 110.315L18.9623 106.181L23.0916 105.287L22.6308 103.178L12.1328 105.446L12.593 107.553L17.1832 106.561L18.0859 110.694L13.4918 111.688L13.9533 113.802L24.4506 111.531L23.9923 109.42Z" fill="white"/>
<path d="M12.9831 101.103C13.539 101.409 14.1237 101.546 14.7419 101.506C15.4197 101.464 15.9796 101.286 16.4234 100.975C16.8632 100.662 17.2041 100.247 17.4395 99.7273C17.6722 99.2072 17.8839 98.4142 18.0668 97.3485C18.2504 96.2892 18.447 95.6137 18.6608 95.3292C18.826 95.1021 19.037 94.9865 19.2901 94.967C19.5693 94.9467 19.7955 95.0512 19.9771 95.2731C20.2564 95.6059 20.4157 96.0902 20.455 96.7161C20.4956 97.3217 20.4019 97.7844 20.1777 98.1042C19.9548 98.4175 19.5726 98.6407 19.0279 98.7686L19.256 100.923C20.2406 100.824 21.003 100.42 21.5524 99.7071C22.1011 98.9957 22.3331 97.9659 22.2486 96.6286C22.1987 95.8076 22.0316 95.1106 21.7464 94.548C21.4632 93.9847 21.0712 93.5644 20.5789 93.2819C20.0807 93.0051 19.5628 92.8792 19.0167 92.9157C18.1684 92.9679 17.4677 93.3393 16.9196 94.033C16.5283 94.5251 16.2261 95.3573 16.013 96.5235C15.8419 97.4372 15.7226 98.0265 15.6498 98.2837C15.5384 98.6622 15.4027 98.9285 15.2336 99.0877C15.0644 99.247 14.8514 99.3312 14.6003 99.3488C14.2037 99.3743 13.849 99.2189 13.5298 98.8835C13.2132 98.5506 13.0316 98.037 12.9922 97.3439C12.9509 96.686 13.084 96.1548 13.3908 95.7508C13.6976 95.3455 14.2011 95.0583 14.9025 94.8867L14.5662 92.8015C13.3744 93.0162 12.4881 93.5064 11.906 94.2693C11.3265 95.0283 11.0774 96.0863 11.1613 97.434C11.2164 98.362 11.396 99.1269 11.6949 99.7312C11.9965 100.341 12.4265 100.796 12.9831 101.103Z" fill="white"/>
<path d="M67.9578 103.081H66.4619V112.911H67.9578V103.081Z" fill="white"/>
<path d="M71.1739 100.297H69.6747V111.266H71.1739V100.297Z" fill="white"/>
<path d="M77.5957 96.5829H76.0977V108.393H77.5957V96.5829Z" fill="white"/>
<path d="M74.3868 98.358H72.8889V109.766H74.3868V98.358Z" fill="white"/>
<path d="M80.8118 95.2737H79.3158V107.49H80.8118V95.2737Z" fill="white"/>
<path d="M84.0161 94.2582H82.5201V106.635H84.0161V94.2582Z" fill="white"/>
<path d="M64.743 106.136H63.2451V114.966H64.743V106.136Z" fill="white"/>
<path d="M61.5348 110.405H60.0388V117.225H61.5348V110.405Z" fill="white"/>
<path d="M58.318 114.89H56.8201V119.809H58.318V114.89Z" fill="white"/>
<path d="M55.1091 118.481H53.6106V121.905H55.1091V118.481Z" fill="white"/>
<path d="M51.895 121.133H50.399V123.632H51.895V121.133Z" fill="white"/>
<path d="M48.6841 123.384H47.1882V125.223H48.6841V123.384Z" fill="white"/>
<path d="M119.367 103.081H117.871V112.911H119.367V103.081Z" fill="white"/>
<path d="M116.15 100.293H114.652V111.266H116.15V100.293Z" fill="white"/>
<path d="M109.73 96.5829H108.234V108.393H109.73V96.5829Z" fill="white"/>
<path d="M112.939 98.358H111.441V109.766H112.939V98.358Z" fill="white"/>
<path d="M106.51 95.2737H105.014V107.49H106.51V95.2737Z" fill="white"/>
<path d="M103.297 94.2582H101.798V106.635H103.297V94.2582Z" fill="white"/>
<path d="M122.577 106.139H121.079V114.968H122.577V106.139Z" fill="white"/>
<path d="M125.787 110.405H124.292V117.225H125.787V110.405Z" fill="white"/>
<path d="M129.003 114.89H127.507V119.809H129.003V114.89Z" fill="white"/>
<path d="M132.221 118.481H130.724V121.905H132.221V118.481Z" fill="white"/>
<path d="M135.425 121.133H133.929V123.632H135.425V121.133Z" fill="white"/>
<path d="M138.637 123.384H137.142V125.223H138.637V123.384Z" fill="white"/>
<path d="M82.9475 142.648C83.468 142.18 83.8201 141.818 84.022 141.569C84.3203 141.184 84.5392 140.826 84.6775 140.477C84.8145 140.129 84.8847 139.767 84.8847 139.384C84.8847 138.706 84.6415 138.143 84.161 137.695C83.6759 137.239 83.0164 137.016 82.1707 137.016C81.4044 137.016 80.7587 137.207 80.2487 137.599C79.7354 137.994 79.4253 138.635 79.3322 139.533L80.9639 139.69C80.994 139.22 81.112 138.88 81.3146 138.676C81.5185 138.467 81.7905 138.37 82.1307 138.37C82.4736 138.37 82.7483 138.464 82.9436 138.664C83.1416 138.859 83.2386 139.13 83.2386 139.499C83.2386 139.828 83.1265 140.159 82.8997 140.499C82.7345 140.74 82.2802 141.207 81.5427 141.892C80.6249 142.732 80.0087 143.417 79.6987 143.932C79.3873 144.446 79.2024 144.987 79.1401 145.558H84.8847V144.044H81.6306C81.7145 143.897 81.8259 143.749 81.9655 143.593C82.1032 143.438 82.4303 143.128 82.9475 142.648Z" fill="white"/>
<path d="M89.9861 137.016C89.1549 137.016 88.5125 137.3 88.0484 137.884C87.4898 138.593 87.2106 139.747 87.2106 141.345C87.2106 142.978 87.4656 144.115 87.9749 144.752C88.4804 145.391 89.1536 145.705 89.9861 145.705C90.8154 145.705 91.4611 145.414 91.9226 144.837C92.4812 144.132 92.7591 142.971 92.7591 141.359C92.7591 139.753 92.4851 138.593 91.9279 137.893C91.4631 137.302 90.8154 137.016 89.9861 137.016ZM90.877 143.486C90.7931 143.818 90.6699 144.034 90.5158 144.164C90.3585 144.294 90.1808 144.35 89.9855 144.35C89.7869 144.35 89.6112 144.294 89.4538 144.167C89.3004 144.044 89.1746 143.792 89.073 143.418C88.974 143.043 88.9235 142.36 88.9235 141.359C88.9235 140.365 88.9773 139.654 89.0913 139.23C89.1785 138.907 89.2965 138.682 89.4538 138.56C89.6066 138.43 89.7869 138.37 89.9855 138.37C90.1808 138.37 90.3578 138.43 90.5119 138.56C90.6673 138.683 90.7931 138.933 90.896 139.306C90.9983 139.678 91.0475 140.365 91.0475 141.359C91.0481 142.359 90.9911 143.068 90.877 143.486Z" fill="white"/>
<path d="M96.2001 138.373C95.696 138.762 95.2345 139.026 94.8011 139.165V140.649C95.6166 140.378 96.3233 139.973 96.9186 139.413V145.558H98.5607V137.015H97.2326C97.0444 137.537 96.7016 137.986 96.2001 138.373Z" fill="white"/>
<path d="M105.07 140.988C105.892 140.54 106.299 139.944 106.299 139.197C106.299 138.67 106.103 138.195 105.701 137.78C105.213 137.27 104.569 137.013 103.765 137.013C103.296 137.013 102.87 137.103 102.488 137.28C102.114 137.456 101.817 137.698 101.606 138C101.39 138.311 101.235 138.723 101.128 139.234L102.639 139.492C102.683 139.126 102.798 138.841 102.999 138.643C103.199 138.453 103.439 138.356 103.722 138.356C104.006 138.356 104.231 138.441 104.4 138.609C104.572 138.781 104.655 139.005 104.655 139.296C104.655 139.632 104.54 139.897 104.308 140.104C104.074 140.309 103.738 140.406 103.291 140.392L103.113 141.721C103.402 141.641 103.653 141.599 103.866 141.599C104.183 141.599 104.453 141.718 104.675 141.961C104.896 142.202 105.006 142.524 105.006 142.937C105.006 143.373 104.892 143.716 104.661 143.971C104.43 144.224 104.145 144.351 103.804 144.351C103.491 144.351 103.223 144.247 102.999 144.035C102.78 143.822 102.643 143.512 102.59 143.108L101.007 143.307C101.086 144.015 101.381 144.6 101.89 145.043C102.402 145.481 103.041 145.705 103.818 145.705C104.63 145.705 105.314 145.44 105.863 144.917C106.413 144.389 106.687 143.754 106.687 143.004C106.687 142.492 106.541 142.057 106.251 141.686C105.953 141.323 105.562 141.084 105.07 140.988Z" fill="white"/>
<path d="M106.632 131.693H104.623V130.899H102.612V130.097H98.3522L99.9983 121.258C100.03 121.195 100.05 121.129 100.05 121.056C100.05 120.975 100.028 120.897 99.9865 120.83L97.9943 111.956C97.9943 111.952 97.9963 111.952 97.9963 111.948C97.9963 111.919 97.9845 111.9 97.9799 111.87L98.9888 105.959H100.092V93.4999H98.5941V98.2791L97.6442 93.757C97.6482 93.7315 97.6587 93.7126 97.6587 93.6904C97.6587 93.6656 97.6383 93.6519 97.6344 93.6304L99.0209 84.6722C99.0288 84.635 99.0406 84.6031 99.0406 84.5659C99.0406 84.5287 99.0229 84.498 99.0143 84.4634C99.0104 84.4516 99.0084 84.4406 99.0038 84.4282C98.996 84.4053 98.9979 84.374 98.9848 84.3511L97.2935 75.3597C97.2935 75.3558 97.2876 75.3558 97.2876 75.3519L98.4906 66.508C98.5161 66.4499 98.5325 66.3879 98.5325 66.3226C98.5325 66.2489 98.5142 66.1751 98.4794 66.1131L96.9284 57.2424C96.9304 57.2255 96.9402 57.2118 96.9402 57.1941C96.9402 57.1804 96.9284 57.1732 96.9284 57.1654L98.0349 48.1257L98.0599 47.6258H93.7451L93.3412 38.7238H92.4864L92.0793 47.6258H87.7416L88.9025 57.1491L87.3207 66.2449C87.3168 66.26 87.3227 66.2763 87.3227 66.2913C87.3207 66.3226 87.3102 66.3494 87.3141 66.3826L88.5263 75.3708L86.8245 84.436C86.8205 84.4438 86.8205 84.4549 86.8186 84.4627L86.814 84.4817C86.812 84.4902 86.8159 84.4973 86.8159 84.5091C86.81 84.5502 86.8002 84.5907 86.8081 84.6331L88.1985 93.6774L87.2407 98.2543V93.4979H85.7448V105.957H86.8258L87.8379 111.908C87.836 111.917 87.834 111.93 87.834 111.942L85.8116 120.96C85.8051 120.984 85.8116 121.014 85.8116 121.041C85.8116 121.073 85.8031 121.103 85.8077 121.134L87.4748 130.094H83.2072V130.896H81.1992V131.69H79.19V132.584H106.631V131.693H106.632ZM92.8974 103.838L96.792 111.502H89.0166L92.8974 103.838ZM92.9033 85.6473L96.4675 93.2453H89.3555L92.9033 85.6473ZM95.812 56.749H90.0196L92.9132 49.3083L95.812 56.749ZM92.9014 67.4797L96.1404 74.9988H89.6636L92.9014 67.4797ZM92.9092 122L97.3139 130.097H88.5013L92.9092 122ZM93.6408 120.614L94.9336 118.057L97.3683 113.262L99.0215 120.614H93.6408V120.614ZM93.6166 102.374L97.0136 95.1106L98.5378 102.374H93.6166ZM93.5805 84.1208L94.3003 82.448L96.6806 76.962L98.0323 84.1208H93.5805ZM93.5608 65.8775L96.3004 58.8525L97.5321 65.8775H93.5608ZM89.5142 58.8531L91.3412 63.5326L92.2537 65.8782H88.2916L89.5142 58.8531ZM89.1379 76.9659L90.0747 79.1392L92.2242 84.1208H87.7914L89.1379 76.9659ZM88.816 95.1027L92.2104 102.374H87.2938L88.816 95.1027ZM88.4528 113.281L92.1658 120.614H86.8094L88.4528 113.281Z" fill="white"/>
<path d="M115.27 152.071C116.118 152.071 116.857 151.937 117.53 151.658C119.571 150.815 120.845 148.749 122.016 146.632C122.819 146.7 123.63 146.758 124.409 146.758C126.245 146.758 127.591 146.434 128.642 145.733C130.471 144.515 131.315 142.252 132.046 139.955C134.448 139.688 136.841 139.305 138.39 137.766C139.938 136.221 140.317 133.832 140.59 131.435C142.887 130.706 145.156 129.868 146.369 128.059C147.582 126.258 147.492 123.857 147.289 121.466C149.421 120.3 151.497 119.032 152.346 116.999C153.179 114.997 152.603 112.645 151.931 110.329C153.779 108.779 155.557 107.138 155.988 104.99C156.411 102.876 155.4 100.695 154.293 98.5643C155.809 96.6743 157.226 94.7098 157.226 92.4896C157.226 90.2875 155.829 88.3335 154.329 86.4585C155.425 84.3361 156.404 82.1609 155.974 80.0091C155.539 77.8437 153.778 76.197 151.934 74.6457C152.603 72.3328 153.177 69.9832 152.344 67.9849C151.498 65.9512 149.416 64.6845 147.288 63.5182C147.491 61.1282 147.592 58.7187 146.383 56.9252C145.16 55.1044 142.889 54.2638 140.586 53.5361C140.315 51.1461 139.932 48.7633 138.387 47.2237C136.833 45.6822 134.43 45.3024 132.021 45.0335C131.288 42.744 130.446 40.4839 128.631 39.2752C127.565 38.5684 126.204 38.2369 124.349 38.2369C123.587 38.2369 122.796 38.293 122.012 38.3609C120.84 36.2457 119.567 34.1774 117.527 33.3349C116.852 33.0575 116.113 32.9205 115.267 32.9205C113.845 32.9205 112.326 33.3173 110.829 33.7474C109.269 31.9037 107.616 30.1337 105.454 29.7036C105.125 29.6396 104.784 29.6051 104.432 29.6051C102.634 29.6051 100.797 30.4665 99.0012 31.3907C97.1093 29.8876 95.1361 28.4792 92.9118 28.4792C90.6981 28.4792 88.738 29.8661 86.8539 31.3613C85.0748 30.4476 83.2498 29.6161 81.4365 29.6161C81.0674 29.6161 80.7102 29.6514 80.3647 29.7206C78.1876 30.1507 76.5337 31.9056 74.9741 33.7434C73.4847 33.3134 71.9717 32.9205 70.5577 32.9205C69.7095 32.9205 68.972 33.0575 68.2968 33.3349C66.2541 34.1774 64.9817 36.2496 63.8076 38.3687C63.0045 38.2995 62.1949 38.2388 61.4142 38.2388C59.5721 38.2388 58.2302 38.5665 57.1787 39.2654C55.3517 40.4813 54.5067 42.742 53.7764 45.0374C51.3797 45.3043 48.9863 45.6861 47.4412 47.2244C45.8895 48.7698 45.5113 51.1598 45.2399 53.5576C42.9396 54.2879 40.6661 55.1265 39.4534 56.9337C38.2439 58.7389 38.3298 61.1361 38.5304 63.5267C36.4031 64.689 34.3283 65.9538 33.4866 67.9855C32.6521 69.9878 33.2257 72.3438 33.9009 74.6581C32.0457 76.2114 30.2666 77.8534 29.8346 80.0032C29.4124 82.1171 30.4219 84.2996 31.5285 86.4285C30.0155 88.3146 28.6015 90.2751 28.6015 92.4902C28.6015 94.6948 30.0004 96.6462 31.5023 98.5239C30.4009 100.649 29.4183 102.827 29.8503 104.982C30.2829 107.148 32.0457 108.794 33.893 110.351C33.2218 112.659 32.6514 115.005 33.4846 117C34.3283 119.033 36.4071 120.301 38.5376 121.467C38.3304 123.861 38.2295 126.266 39.439 128.067C40.6629 129.886 42.9343 130.728 45.2405 131.456C45.51 133.845 45.8941 136.228 47.4366 137.766C48.9876 139.305 51.3883 139.688 53.7967 139.957C54.5323 142.247 55.3727 144.51 57.1898 145.718C58.2558 146.426 59.6167 146.757 61.4725 146.757C62.2362 146.757 63.0288 146.698 63.8122 146.634C64.983 148.75 66.2554 150.815 68.2941 151.655C68.9713 151.937 69.7108 152.07 70.5571 152.07C71.975 152.07 73.4952 151.676 74.9899 151.244C76.552 153.09 78.2021 154.864 80.364 155.292C80.6925 155.359 81.0379 155.39 81.3867 155.39C83.1868 155.39 85.0283 154.529 86.8231 153.603C88.7183 155.11 90.6882 156.516 92.9132 156.516C95.1223 156.516 97.0798 155.128 98.9652 153.634C100.744 154.55 102.568 155.383 104.384 155.382C104.752 155.382 105.111 155.349 105.454 155.279C107.633 154.848 109.289 153.09 110.848 151.251C112.341 151.68 113.854 152.071 115.27 152.071ZM105.463 148.613C105.005 148.613 104.564 148.656 104.157 148.734C102.25 149.111 100.491 150.499 98.7908 151.866C96.853 150.856 94.8523 149.832 92.9066 149.832C90.9295 149.836 88.934 150.831 86.9969 151.837C85.3055 150.479 83.5605 149.105 81.6705 148.734C81.2621 148.656 80.819 148.613 80.3595 148.613C78.7999 148.613 77.1348 149.074 75.5104 149.547C74.1206 147.885 72.6699 146.204 70.8776 145.462C69.9618 145.082 68.8894 144.906 67.5003 144.906C66.5746 144.906 65.6064 144.987 64.6585 145.07C63.6181 143.172 62.5306 141.248 60.9173 140.173C59.2954 139.092 57.0902 138.814 54.9289 138.582C54.2753 136.511 53.5738 134.405 52.1913 133.029C50.814 131.664 48.6946 130.972 46.6185 130.326C46.3825 128.167 46.1111 125.964 45.0209 124.344C43.9452 122.742 42.0146 121.66 40.1109 120.625C40.3017 118.462 40.461 116.252 39.7084 114.438C38.9709 112.66 37.2717 111.22 35.602 109.829C36.2143 107.748 36.8056 105.61 36.4195 103.685C36.0452 101.787 34.6476 100.038 33.2788 98.3476C34.2942 96.4178 35.3248 94.4266 35.3228 92.4896C35.3208 90.5218 34.3165 88.5326 33.307 86.6021C34.6666 84.9209 36.0485 83.1816 36.4208 81.3026C36.803 79.3852 36.2189 77.2504 35.6073 75.1737C37.2789 73.7875 38.9663 72.3465 39.7117 70.5608C40.4642 68.755 40.2977 66.534 40.1037 64.3627C42.0107 63.3328 43.9452 62.2462 45.0249 60.6446C46.1085 59.0287 46.3838 56.8365 46.6205 54.6867C48.6985 54.0321 50.8186 53.339 52.1972 51.9593C53.5738 50.5881 54.2654 48.4807 54.9125 46.4105C57.0797 46.1782 59.2941 45.9028 60.9212 44.8201C62.5332 43.7465 63.6181 41.8231 64.6558 39.9311C65.59 40.0127 66.5405 40.0923 67.4563 40.0923C68.8572 40.0923 69.9389 39.9142 70.8678 39.5324C72.6568 38.7988 74.1029 37.1058 75.4953 35.4416C77.1224 35.918 78.7947 36.3795 80.3601 36.3795C80.8216 36.3795 81.2628 36.3403 81.6712 36.2613C83.5736 35.8854 85.3305 34.4946 87.0277 33.1332C88.9668 34.1402 90.9668 35.1669 92.9145 35.1669C94.8922 35.1649 96.889 34.1657 98.8282 33.158C100.518 34.5162 102.263 35.8874 104.154 36.2613C104.562 36.3403 105.005 36.3795 105.462 36.3795C107.024 36.3795 108.686 35.9226 110.308 35.4475C111.7 37.1098 113.146 38.791 114.941 39.5324C115.857 39.9122 116.931 40.0891 118.318 40.0891C119.248 40.0891 120.218 40.0075 121.164 39.9239C122.207 41.8218 123.296 43.7471 124.906 44.8207C126.53 45.8989 128.731 46.1762 130.89 46.4112C131.544 48.4814 132.244 50.5887 133.628 51.9678C135.008 53.3337 137.129 54.021 139.207 54.6677C139.442 56.826 139.716 59.0261 140.805 60.6453C141.884 62.2449 143.809 63.327 145.713 64.3594C145.521 66.5249 145.361 68.7406 146.114 70.5537C146.851 72.3334 148.552 73.7725 150.223 75.1613C149.61 77.2432 149.027 79.378 149.406 81.2987C149.784 83.194 151.179 84.9444 152.548 86.6354C151.531 88.5659 150.5 90.5616 150.502 92.5019C150.504 94.4703 151.505 96.4589 152.517 98.3875C151.157 100.067 149.78 101.802 149.406 103.685C149.027 105.602 149.611 107.737 150.221 109.814C148.548 111.201 146.859 112.645 146.112 114.431C145.358 116.236 145.526 118.457 145.715 120.624C143.811 121.659 141.883 122.744 140.807 124.348C139.72 125.963 139.444 128.155 139.21 130.309C137.128 130.958 135.008 131.656 133.623 133.036C132.251 134.405 131.56 136.515 130.91 138.581C128.746 138.813 126.535 139.088 124.908 140.172C123.296 141.246 122.209 143.17 121.169 145.066C120.236 144.984 119.28 144.905 118.362 144.905C116.965 144.905 115.88 145.081 114.953 145.463C113.168 146.199 111.72 147.888 110.327 149.55C108.701 149.078 107.032 148.613 105.463 148.613ZM116.959 150.283C116.468 150.484 115.914 150.584 115.271 150.584C114.231 150.584 113.098 150.33 111.902 150.002C113.084 148.613 114.231 147.374 115.524 146.843C116.264 146.537 117.167 146.396 118.363 146.396C119.01 146.396 119.693 146.44 120.377 146.496C119.401 148.209 118.387 149.693 116.959 150.283ZM127.81 144.496C127.016 145.025 125.936 145.271 124.409 145.271C123.892 145.271 123.35 145.24 122.801 145.2C123.662 143.664 124.576 142.188 125.741 141.411C126.922 140.625 128.65 140.343 130.412 140.138C129.794 141.999 129.088 143.642 127.81 144.496ZM137.33 136.711C136.251 137.787 134.496 138.15 132.541 138.395C133.083 136.714 133.69 135.083 134.685 134.089C135.688 133.087 137.33 132.475 139.022 131.931C138.778 133.884 138.411 135.637 137.33 136.711ZM145.127 127.232C144.281 128.494 142.637 129.193 140.771 129.809C140.979 128.06 141.261 126.344 142.051 125.178C142.83 124.015 144.305 123.109 145.852 122.254C145.991 124.197 145.969 125.976 145.127 127.232ZM150.962 116.431C150.368 117.855 148.874 118.865 147.151 119.838C147.009 118.067 146.949 116.315 147.493 115.006C148.036 113.709 149.318 112.527 150.676 111.383C151.201 113.277 151.543 115.036 150.962 116.431ZM154.517 104.701C154.22 106.203 152.963 107.479 151.472 108.761C150.993 107.063 150.601 105.372 150.875 103.976C151.146 102.613 152.135 101.256 153.266 99.8422C154.146 101.583 154.814 103.231 154.517 104.701ZM153.537 97.1115C152.722 95.5282 152 93.9364 151.998 92.5013C151.996 91.0935 152.718 89.5461 153.568 87.9132C154.738 89.4208 155.73 90.9624 155.73 92.4922C155.73 94.0409 154.718 95.5909 153.537 97.1115ZM154.506 80.3008C154.804 81.796 154.142 83.489 153.298 85.1865C152.154 83.7553 151.151 82.3854 150.876 81.0122C150.6 79.6116 150.993 77.9194 151.475 76.2199C152.924 77.4756 154.205 78.7926 154.506 80.3008ZM150.96 68.5559C151.54 69.9487 151.201 71.7056 150.677 73.5963C149.281 72.4202 148.036 71.2755 147.497 69.9859C146.95 68.6617 147.006 66.9184 147.148 65.1498C148.872 66.1235 150.366 67.1345 150.96 68.5559ZM145.139 57.756C145.98 59.0032 145.991 60.7836 145.849 62.7357C144.305 61.8814 142.828 60.9755 142.052 59.8171C141.26 58.643 140.975 56.9233 140.769 55.1644C142.639 55.7811 144.287 56.4821 145.139 57.756ZM139.018 53.0459C137.328 52.5095 135.686 51.9032 134.688 50.9111C133.683 49.912 133.069 48.279 132.521 46.5959C134.484 46.84 136.247 47.2022 137.328 48.281C138.407 49.3546 138.773 51.1037 139.018 53.0459ZM127.801 40.5146C129.069 41.3571 129.77 42.9979 130.389 44.8546C128.634 44.6497 126.915 44.3671 125.74 43.5826C124.575 42.8073 123.66 41.3323 122.801 39.7921C123.332 39.7569 123.853 39.7295 124.351 39.7295C125.896 39.7301 126.992 39.9801 127.801 40.5146ZM116.954 34.7139C118.382 35.3019 119.399 36.7861 120.373 38.496C119.675 38.5527 118.978 38.601 118.319 38.601C117.135 38.601 116.243 38.4614 115.516 38.1612C114.218 37.6208 113.027 36.3481 111.883 34.9978C113.084 34.6669 114.223 34.4131 115.269 34.4131C115.912 34.4131 116.466 34.5129 116.954 34.7139ZM105.165 31.1655C106.674 31.4677 107.957 32.7168 109.246 34.2003C107.515 34.6846 105.763 35.0624 104.446 34.7988C103.075 34.5318 101.713 33.5437 100.291 32.4166C102.059 31.5473 103.742 30.8908 105.165 31.1655ZM97.5439 32.1458C95.9542 32.957 94.3527 33.6762 92.9112 33.6801C91.4991 33.6801 89.9481 32.9629 88.3132 32.1223C89.8288 30.9567 91.3733 29.9705 92.9132 29.9705C94.4648 29.9705 96.0191 30.9717 97.5439 32.1458ZM80.6571 31.1812C82.1098 30.896 83.8424 31.5525 85.5664 32.3931C84.1334 33.532 82.7614 34.5292 81.3801 34.7988C80.0592 35.0624 78.2991 34.6806 76.5593 34.1964C77.8186 32.7573 79.1415 31.4814 80.6571 31.1812ZM68.869 34.7139C69.3594 34.5123 69.914 34.4131 70.559 34.4131C71.5968 34.4131 72.7302 34.6656 73.9213 34.9946C72.7427 36.3853 71.5928 37.6247 70.2962 38.1599C69.5567 38.462 68.654 38.6056 67.457 38.6056C66.8146 38.6056 66.1321 38.5593 65.4491 38.5051C66.4258 36.788 67.4413 35.3026 68.869 34.7139ZM58.0132 40.5048C58.8038 39.9775 59.8854 39.7314 61.4155 39.7314C61.9307 39.7314 62.4722 39.7588 63.0229 39.798C62.1641 41.3356 61.2516 42.8073 60.088 43.5826C58.9041 44.371 57.1761 44.6517 55.41 44.8566C56.0302 42.9979 56.7329 41.3552 58.0132 40.5048ZM48.5025 48.2817C49.5803 47.2068 51.3325 46.8445 53.2854 46.5985C52.7439 48.2817 52.1356 49.9165 51.1398 50.9085C50.1362 51.9097 48.4993 52.5219 46.8099 53.0642C47.0538 51.1128 47.4202 49.3585 48.5025 48.2817ZM40.6989 57.7645C41.5452 56.501 43.1933 55.804 45.057 55.1885C44.8518 56.9357 44.5673 58.6475 43.78 59.8177C42.9992 60.9755 41.517 61.8859 39.9706 62.7409C39.8323 60.7973 39.8533 59.0215 40.6989 57.7645ZM34.8678 68.5598C35.4618 67.1364 36.9512 66.1261 38.6733 65.155C38.8162 66.9256 38.8798 68.6799 38.3311 69.993C37.7935 71.2866 36.5126 72.4685 35.1569 73.6113C34.6305 71.7134 34.2877 69.9532 34.8678 68.5598ZM31.3049 80.2969C31.6065 78.7919 32.8658 77.5115 34.3572 76.2316C34.839 77.9265 35.2304 79.6175 34.9531 81.0135C34.6803 82.3769 33.6924 83.7344 32.559 85.1526C31.6773 83.412 31.0106 81.7654 31.3049 80.2969ZM32.2876 87.8826C33.0985 89.4652 33.8255 91.0583 33.8275 92.4935C33.8275 93.8999 33.1084 95.4395 32.2614 97.075C31.0925 95.5654 30.1 94.0298 30.1 92.4922C30.1 90.9461 31.1083 89.4006 32.2876 87.8826ZM31.3194 104.69C31.0178 103.195 31.6852 101.502 32.5328 99.8017C33.6754 101.23 34.6803 102.598 34.9531 103.974C35.2304 105.375 34.8351 107.077 34.35 108.777C32.9032 107.52 31.6203 106.203 31.3194 104.69ZM34.8678 116.431C34.2877 115.036 34.6279 113.29 35.151 111.4C36.548 112.573 37.7929 113.72 38.3258 115.01C38.8745 116.33 38.8182 118.074 38.6772 119.838C36.9531 118.864 35.4585 117.852 34.8678 116.431ZM40.6825 127.239C39.8441 125.99 39.8323 124.205 39.9752 122.253C41.519 123.105 42.9973 124.015 43.7787 125.174C44.5679 126.352 44.8531 128.075 45.0576 129.832C43.1913 129.215 41.54 128.511 40.6825 127.239ZM46.8066 131.949C48.4966 132.489 50.1355 133.096 51.1359 134.083C52.1375 135.083 52.7538 136.714 53.2992 138.395C51.3417 138.153 49.5803 137.788 48.4973 136.711C47.4202 135.64 47.0498 133.892 46.8066 131.949ZM58.0224 144.48C56.7526 143.638 56.0525 141.997 55.431 140.138C57.1898 140.342 58.9087 140.624 60.0847 141.411C61.2516 142.187 62.1667 143.664 63.0268 145.205C62.4965 145.241 61.9727 145.269 61.4725 145.269C59.9274 145.268 58.8287 145.021 58.0224 144.48ZM68.8671 150.279C67.4432 149.693 66.4271 148.21 65.453 146.501C66.1498 146.446 66.846 146.396 67.5003 146.396C68.6848 146.396 69.577 146.538 70.3034 146.836C71.602 147.375 72.7918 148.652 73.9351 149.999C72.7387 150.327 71.5987 150.582 70.5571 150.582C69.91 150.581 69.3574 150.484 68.8671 150.279ZM80.6551 153.832C79.1454 153.53 77.8625 152.281 76.5717 150.794C78.3089 150.317 80.0658 149.937 81.3808 150.197C82.7496 150.466 84.1144 151.45 85.535 152.579C83.765 153.454 82.0763 154.105 80.6551 153.832ZM88.2811 152.852C89.8681 152.042 91.4723 151.323 92.9112 151.322C94.3252 151.322 95.8716 152.038 97.5066 152.881C95.9929 154.042 94.4511 155.029 92.9132 155.029C91.3608 155.029 89.8078 154.025 88.2811 152.852ZM105.163 153.82C103.718 154.105 101.983 153.449 100.252 152.608C101.688 151.469 103.062 150.469 104.446 150.197C105.764 149.937 107.527 150.319 109.266 150.802C108.005 152.243 106.682 153.519 105.163 153.82Z" fill="white"/>
<path d="M60.8353 65.6725H55.6159L56.3016 65.2575L55.0927 63.3035L54.1422 63.885L55.252 65.6725H50.5878V66.7859H60.8353V65.6725Z" fill="white"/>
<path d="M61.5433 73.499H57.4737L59.4626 68.2055L58.28 68.1768L56.257 73.499H54.5827L54.5637 73.4096L55.0429 73.193L52.9989 68.2094H51.7442L53.9672 73.499H49.8038V74.6033H61.5433V73.499Z" fill="white"/>
<path d="M49.4039 87.9499L50.3643 88.502L52.0418 85.6415L51.0788 85.0894L49.4039 87.9499Z" fill="white"/>
<path d="M56.3861 86.9898L57.3406 86.4252L55.8165 83.8845L54.862 84.4543L56.3861 86.9898Z" fill="white"/>
<path d="M58.6484 85.3255L61.0326 88.2735L61.9012 87.5804L59.519 84.6278L58.6484 85.3255Z" fill="white"/>
<path d="M60.345 82.5094H56.2452V80.7545H61.3296V79.6385H56.2452V77.6864H55.1314V79.6385H49.8044V80.7545H55.1314V82.5094H51.0323V83.6209H60.345V82.5094Z" fill="white"/>
<path d="M57.555 88.312H54.3559C54.1429 88.2657 54.0354 88.1436 54.0098 87.9185V85.2094H52.894V88.5737C52.894 88.7649 52.9517 89.3967 53.6728 89.4202H58.32V89.4078H58.3613C59.009 89.3458 59.6494 88.1143 59.7681 87.8662L58.5357 87.3219C58.3443 87.7331 58.025 88.2232 57.555 88.312Z" fill="white"/>
<path d="M76.7041 88.1417L76.7146 88.1084V81.6179H80.2631V80.5717H76.7146V77.6505H75.6028V80.5717H69.4118V81.6179H75.197L75.1479 81.691C73.7666 83.7449 71.7757 85.5168 69.4118 86.7718V88.13C70.1447 87.8004 73.0993 86.3385 75.5156 83.2006L75.6035 83.0935L75.6015 87.3279C75.5176 87.7553 75.0043 87.9746 74.626 88.1332L74.5159 88.1874L75.1577 89.5429C75.4042 89.4222 76.6451 88.7924 76.7041 88.1417Z" fill="white"/>
<path d="M115.951 90.0552H117.003V78.3762H106.276V90.0552H107.329V89.3158H115.951V90.0552ZM107.329 79.4185H115.951V88.2722H107.329V79.4185Z" fill="white"/>
<path d="M112.999 85.1199L113.824 86.1041H112.19V84.0704H114.693V83.0243H112.19V81.5369H114.959V80.4946H108.379V81.5369H111.139V83.0243H108.642V84.0704H111.139V86.1041H108.142V87.1503H115.191V86.1021L113.811 84.4503L112.999 85.1199Z" fill="white"/>
<path d="M135.733 65.529L134.026 63.6748L133.252 64.3842L134.957 66.2436L135.733 65.529Z" fill="white"/>
<path d="M131.823 64.3268L130.98 63.7035L129.473 65.7228L130.315 66.346L131.823 64.3268Z" fill="white"/>
<path d="M128.234 65.6601L126.895 63.526L126.004 64.086L127.344 66.2162L128.234 65.6601Z" fill="white"/>
<path d="M124.191 70.66L124.857 71.6357C125.055 71.4941 125.592 71.0895 126.237 70.4257L126.318 70.3402V75.3551H127.375V70.6698L128.488 72.0162L129.331 71.3884L128.134 69.9434L129.217 68.9096L128.486 68.1637L127.502 69.093L127.445 69.1146L127.392 69.0447L127.415 69.016C127.801 68.4593 128.139 67.8869 128.407 67.3054H128.404L128.424 67.2611C128.607 66.8525 128.735 66.4068 128.776 66.2482H124.486V67.2904H127.093L127.053 67.3596C125.994 69.3077 124.46 70.4623 124.191 70.66Z" fill="white"/>
<path d="M128.848 70.3089L129.593 71.2324C129.672 71.1822 129.885 71.0347 130.187 70.7678L130.267 70.7018V75.3539H131.318V74.726H133.764V75.3539H134.816V70.4453L134.894 70.506C135.162 70.7129 135.444 70.9048 135.709 71.0582L136.418 70.1092C135.714 69.6942 134.07 68.5553 133.038 66.3246C133.038 66.3246 133.134 66.0492 133.166 65.9598L131.919 65.9291C130.878 68.7772 129.185 70.0668 128.848 70.3089ZM133.764 73.6772H131.318V71.1169H133.764V73.6772ZM130.945 69.9931C131.487 69.362 131.977 68.6297 132.394 67.8126L132.428 67.7408L132.475 67.8126C132.98 68.6447 133.581 69.3737 134.264 69.9892L134.359 70.0727H130.878L130.945 69.9931Z" fill="white"/>
<path d="M107.943 69.7339L105.843 70.4871V71.6377L107.975 70.8375V73.1694L107.971 73.2627H107.967C107.915 73.625 107.58 73.9506 106.971 74.2306L107.519 75.4276C107.766 75.3075 108.996 74.6783 109.021 74.0492L109.025 74.0028L109.057 70.427L110.461 69.9349V68.7804L109.025 69.3228V67.4105H110.461V66.363H109.025V63.4562H107.975V66.363H105.803V67.4105H107.975L107.943 69.7339Z" fill="white"/>
<path d="M112.09 69.2262L112.11 69.1759H112.193L112.203 69.2151C112.249 69.3698 112.679 70.7951 113.762 72.3275L113.785 72.3608L113.762 72.3876C113.285 72.9182 112.818 73.345 112.479 73.6511L112.41 73.6903V75.2357C113.176 74.7436 113.921 74.1099 114.568 73.3998L114.602 73.3607L114.637 73.3998C115.444 74.2594 116.351 74.9068 117.338 75.333L117.366 73.9787C116.642 73.6204 115.971 73.1133 115.373 72.4666L115.343 72.4352L115.369 72.4026C116.047 71.4393 116.525 70.382 116.792 69.2667L116.817 69.1642H116.819C116.869 68.9723 116.976 68.5285 117.028 68.1317H116.302V68.1356H112.09V65.1759H115.433V65.6641L115.429 65.7535H115.423C115.375 66.1157 115.043 66.4433 114.429 66.7298L114.976 67.9131C115.221 67.7989 116.415 67.1834 116.47 66.5634L116.486 66.5288V64.1284H111.037V75.3082H112.089V69.2262H112.09ZM115.596 69.1759L115.575 69.2399C115.375 69.9624 115.034 70.6692 114.576 71.3492L114.536 71.4073L114.492 71.3492C113.912 70.4584 113.588 69.6485 113.448 69.2399L113.429 69.1759H115.596Z" fill="white"/>
<path d="M134.034 88.3316C133.851 88.3316 133.623 88.1645 133.353 87.9753L133.28 87.9185C132.507 87.3083 131.917 86.313 131.525 84.9477L131.507 84.8876H134.77V83.8375H131.26L131.254 83.799C131.143 83.1601 131.091 82.6249 131.071 82.2803V82.234H134.77V78.5851L125.635 78.5812V88.3316H125.643L125.647 88.378C125.683 89.0071 126.888 89.6173 127.135 89.7374L127.668 88.5816C127.281 88.4047 126.686 88.0373 126.686 87.5028V84.8883H130.274L130.28 84.9229C130.763 86.8247 131.583 88.1985 132.717 88.996L132.742 89.0254C133.31 89.3967 133.8 89.5925 134.215 89.5925C135.402 89.5925 135.589 87.9753 135.615 87.6653H134.351C134.344 87.9675 134.299 88.3316 134.034 88.3316ZM126.684 83.8375V82.234H129.881L129.883 82.2764C129.9 82.6099 129.939 83.1399 130.047 83.7795L130.053 83.8375H126.684ZM126.684 79.6313H133.722V81.1846H126.684V79.6313Z" fill="white"/>
<path d="M70.9458 69.362V69.3156H72.9819V72.2943H73.0101L72.9878 72.3563C72.9 72.6506 72.6339 72.8712 71.6092 73.0337L71.7482 74.029C72.782 73.8783 73.842 73.5493 74.0053 72.3361L74.0367 72.3015L74.0407 72.0456H74.0367V68.2708H70.9452V66.6607H75.1669L75.1688 66.7031C75.3321 68.524 75.6651 70.1125 76.1463 71.472C75.5432 72.2232 74.8857 72.8706 74.2203 73.3698V74.8572C75.0744 74.3031 75.8978 73.5748 76.6668 72.7074L76.712 72.6572L76.7441 72.7152C77.2581 73.6492 78.2198 75.0086 79.4535 75.0086C79.6685 75.0086 79.8875 74.9858 80.1169 74.9355V73.657C79.6593 73.7928 78.6406 73.9435 77.5393 71.6156C78.2696 70.6085 78.912 69.4775 79.4515 68.2453L78.1608 68.2186C77.8376 68.9084 77.4783 69.5506 77.0752 70.1804L77.0168 70.2718L76.9886 70.1673C76.6917 69.1479 76.4767 67.9823 76.3508 66.7097L76.3469 66.6614H79.7675V65.6041L78.5148 63.4543H77.1951L78.4721 65.6119H76.2715L76.2695 65.5714C76.2276 64.8039 76.2217 64.0606 76.2498 63.4288H75.0699C75.0548 63.7584 75.041 64.5279 75.0862 65.5669L75.0902 65.6113H69.7134V66.5994L69.7095 66.6385V69.4703C69.7095 70.6131 69.562 73.3711 68.2338 74.5211L69.4682 75.2109C69.6629 74.9708 70.9458 73.2237 70.9458 69.362Z" fill="white"/>
<path d="M36.0577 51.0587L36.0603 51.0554L36.0577 51.0587L36.0544 51.0554V51.0626L34.2444 52.407L34.4804 54.0184L32.1473 58.3989L25.0838 54.6769L28.3189 48.595L27.6286 48.2275H27.6234L25.8023 49.5792L26.0475 51.1964L24.3883 54.3088L18.3625 51.1364L17.3163 53.1021L31.1017 60.3693L27.6588 66.8324L28.3517 67.2024L36.7597 51.4229L36.0577 51.0587Z" fill="white"/>
<path d="M75.9581 21.2682L76.1155 22.0377L82.1321 20.8166L83.2347 26.2074L85.4262 25.7564L84.3229 20.3715L87.0238 19.8253L86.8664 19.0473L84.1636 19.5968L81.9662 8.88831L79.7728 9.33993L81.9715 20.0445L75.9581 21.2682Z" fill="white"/>
<path d="M79.9982 14.1447C80.7718 12.3512 76.2039 12.053 76.2039 12.053L75.9922 12.4968C78.0696 13.665 78.0998 14.1878 78.8012 14.503C79.3145 14.7314 79.8291 14.5493 79.9982 14.1447Z" fill="white"/>
<path d="M80.7783 18.6133C81.7322 16.9204 77.22 16.1464 77.22 16.1464L76.965 16.568C78.9094 17.945 78.8753 18.46 79.5426 18.8555C80.033 19.1381 80.5633 19.0004 80.7783 18.6133Z" fill="white"/>
<path d="M70.9229 14.1368L71.4171 16.5463L68.2954 17.1794L68.4567 17.9547L71.0953 17.4163C71.05 18.0839 70.7282 22.3587 69.5574 25.0959L70.1251 25.3844C70.1251 25.3844 71.5155 23.3038 72.293 20.8172L73.7928 28.1209L75.9843 27.6771L74.1678 18.8123C75.4376 19.8213 75.496 20.2572 76.0702 20.594C76.5586 20.8707 77.0909 20.7434 77.3053 20.3519C78.1234 18.8958 74.9092 18.1283 73.9882 17.9391L73.7692 16.8694L76.4249 16.329L76.2734 15.5602L73.6139 16.1006L73.0265 13.2355C73.9587 12.7845 74.8155 12.2826 75.3629 11.7677L73.1852 10.6752C73.1852 10.6752 71.1339 12.8961 67.7507 14.5101L67.8824 15.1686C67.8824 15.1693 69.2879 14.7666 70.9229 14.1368Z" fill="white"/>
<path d="M159.29 48.6647C159.506 48.5479 159.839 48.3084 160.119 48.0911L166.656 59.7668L164.046 60.5219L164.471 61.2751L167.898 61.9819L167.902 61.9897L167.91 61.9884L167.931 61.9897L168.587 61.6334L168.437 59.3674L166.948 58.6834V58.6873L165.909 56.8378C166.646 57.0649 168.133 57.4695 170.131 57.6973L169.57 54.9901C169.57 54.9901 166.709 55.7687 165.251 55.6597L162.587 50.8955C162.684 50.9686 162.794 51.0227 162.915 51.0501C164.997 51.509 164.347 46.22 164.347 46.22L163.824 46.094C163.069 48.5943 162.417 48.978 162.24 49.8186C162.213 49.9733 162.213 50.1227 162.235 50.2624L160.729 47.5742C161.003 47.289 161.312 46.9274 161.312 46.9274L161.024 46.4242L160.91 46.4686C159.166 47.0534 158.351 46.4125 157.324 46.9816C156.834 47.259 156.447 47.9175 156.793 48.529C157.275 49.397 158.222 49.26 159.29 48.6647Z" fill="white"/>
<path d="M165.185 53.9374C167.173 54.3401 166.652 49.3644 166.652 49.3644L166.157 49.2456C165.399 51.601 164.737 52.0095 164.566 52.7868C164.435 53.3559 164.732 53.8441 165.185 53.9374Z" fill="white"/>
<path d="M151.536 58.6652C153.565 61.4017 155.594 60.3059 155.594 60.3059L158.6 58.6436L161.888 64.52L162.566 64.1349L162.57 64.1447V64.1349V64.1304L162.417 61.8938L160.942 61.2196L159.285 58.2625L160.328 57.6849L163.448 59.06L164.135 58.6782L159.494 50.3903L158.809 50.7721L162.232 56.8887L159.251 55.7557L159.243 55.7387L158.198 56.3202L154.206 49.1967L153.521 49.5739L157.513 56.7033L154.51 58.3656C154.196 58.5399 154.053 58.3304 153.802 57.8853C153.573 57.4787 152.637 55.5064 152.434 55.0926L151.868 55.4098C153.09 58.2905 151.536 58.6652 151.536 58.6652Z" fill="white"/>
<path d="M112.81 17.5749L109.888 16.8564L109.696 17.6154L110.035 17.6989C110.027 19.9147 110.534 21.776 111.251 23.3175C108.227 25.1475 105.489 25.6279 105.489 25.6279L105.324 26.3177C107.907 26.6179 110.246 26.0077 112.234 25.0705C114.024 27.7548 116.262 29.0366 116.262 29.0366C116.934 27.8129 117.934 27.7411 118.171 27.7411L118.304 27.1975C116.401 26.3569 115.006 25.2643 113.962 24.1255C116.874 22.3027 118.673 20.0387 118.81 19.8644L118.826 19.8683L119.01 19.1015L114.981 18.1094L115.591 15.6359L120.67 16.891L120.86 16.128L120.87 16.1261L119.102 14.7027L117.593 15.324L115.783 14.8763L116.651 11.3709L114.479 10.8364L113.611 14.3418L110.683 13.6212L110.495 14.3822L113.424 15.1027L112.81 17.5749ZM112.643 22.3901C111.346 20.2925 111.068 18.3888 111.021 17.9437L115.925 19.1524C114.93 20.472 113.794 21.5397 112.643 22.3901Z" fill="white"/>
<path d="M102.263 25.5705L102.848 25.714L102.846 25.718L105.018 26.2505L106.988 18.2974C107.983 18.0357 108.739 17.7995 109.174 17.6565L109.371 16.8407C108.668 16.9478 107.966 17.0248 107.287 17.0868L108.104 13.7962L110.01 14.2654L110.195 13.5123L108.289 13.043L109.16 9.52986L106.99 8.99927L106.119 12.5085L103.614 11.8911L103.426 12.6482L105.935 13.2623L104.952 17.2284C103.069 17.2963 101.739 17.2343 101.739 17.2343L101.89 19.3319C102.848 19.1929 103.733 19.0317 104.546 18.8672L103.53 22.9697L103.559 22.8065C103.402 23.4363 103.3 23.6491 102.082 23.3567C101.533 23.2196 101.029 23.0487 101.029 23.0487L100.915 23.527C102.437 24.2201 102.263 25.5705 102.263 25.5705Z" fill="white"/>
<path d="M40.8517 29.7089C40.9395 27.7738 36.5519 29.0954 36.5519 29.0954L36.5192 29.5953C38.8713 29.9497 39.0843 30.4255 39.8513 30.4764C40.4131 30.4992 40.8314 30.1566 40.8517 29.7089Z" fill="white"/>
<path d="M37.7876 33.0236L37.7477 33.5196C40.1063 33.8779 40.3154 34.3485 41.0798 34.4079C41.6462 34.4314 42.0625 34.077 42.0762 33.6319C42.166 31.6929 37.7876 33.0236 37.7876 33.0236Z" fill="white"/>
<path d="M57.8467 30.1253L57.3596 29.5189L56.1167 30.4953L54.0163 27.8417L55.2579 26.8679L54.7696 26.2505L53.528 27.2223L50.9327 23.9415L49.6137 24.9838L44.3234 29.1319C44.3123 28.5759 44.2848 27.9774 44.2172 27.3509L51.2657 21.825L50.7753 21.201L48.5563 21.7029L48.1217 23.2778L48.144 23.268L44.0973 26.4476C43.9878 25.7447 43.8351 25.0262 43.6161 24.3122L41.3322 25.331C41.3322 25.331 43.2634 28.7299 43.4863 32.4232L44.1051 32.4297C44.1051 32.4297 44.1871 31.9605 44.2513 31.1995L45.8692 33.239L44.4663 34.3393L44.9547 34.9607L46.3596 33.857L48.4547 36.5087L48.4508 36.5107L48.9372 37.1209L48.9391 37.1189L49.1981 37.4459L50.949 36.0695L50.6921 35.7419L54.8456 32.4845C55.3012 33.085 55.4749 33.5457 54.7558 34.1051C53.8013 34.8562 52.1402 36.1563 52.1402 36.1563L52.4509 36.542C52.4509 36.542 54.7656 35.0116 55.5988 36.0623C55.5988 36.0623 58.5907 33.6639 56.5953 31.1094L57.8467 30.1253ZM45.5067 29.1998L49.6609 25.936L51.7724 28.6033L50.8599 29.3179C50.8638 29.2951 50.875 29.2755 50.8782 29.254C50.9641 27.3078 46.5824 28.6477 46.5824 28.6477L46.5444 29.1313C48.9031 29.4902 49.1102 29.9719 49.8766 30.015C49.9185 30.0169 49.9467 30.0052 49.9867 30.0052L47.6182 31.8645L45.5067 29.1998ZM53.4722 32.5694C53.4742 32.5596 53.4801 32.5485 53.4801 32.5368C53.562 30.6056 49.1856 31.9344 49.1856 31.9344L49.1469 32.4141C51.5063 32.775 51.7134 33.2527 52.4856 33.299C52.5099 33.301 52.5256 33.2912 52.5519 33.2912L50.207 35.131L48.1099 32.4813L52.2654 29.2174L54.3435 31.8404L54.3356 31.8423C54.3435 31.8521 54.3494 31.8632 54.3585 31.873L53.4722 32.5694Z" fill="white"/>
<path d="M41.7 38.1149L42.1411 38.6722C42.1411 38.6722 43.8397 37.874 46.1564 40.8051C46.9076 41.7481 47.4694 42.4399 47.4694 42.4399L48.6291 41.5308C48.6291 41.5308 45.8941 37.9902 45.0196 36.7724C44.2061 35.6375 42.111 29.2612 41.7825 28.245L41.167 28.7345C41.6744 30.3772 43.1953 35.3973 43.1094 36.5322C43.0287 37.5973 41.7 38.1149 41.7 38.1149Z" fill="white"/>
<path d="M148.197 35.1049L147.194 33.0759L145.561 33.0113L145.573 33.0308L142.063 30.2421C143.999 28.4734 145.254 26.7381 145.606 26.2271L143.527 24.5791C142.417 26.2603 141.277 27.6159 140.141 28.7162L134.58 24.2979L134.093 24.9061L139.558 29.2507C134.644 33.6489 129.883 33.3545 127.671 32.8879L127.102 33.6025C132.938 36.2366 137.981 33.6959 141.34 30.8752C136.891 37.1275 139.397 43.366 139.397 43.366C140.982 42.3323 142.2 43.68 142.2 43.68L142.6 43.1722C139.418 38.1364 141.795 31.9116 142.067 31.2478L147.706 35.7275L148.194 35.1154L148.163 35.0919L148.197 35.1049Z" fill="white"/>
<path d="M92.9125 0C41.6796 0 0 41.4968 0 92.4994C0 143.504 41.6796 185 92.9125 185C144.147 185 185.826 143.504 185.826 92.4994C185.826 41.4968 144.147 0 92.9125 0ZM92.9125 182.028C43.325 182.028 2.98863 141.866 2.98863 92.4994C2.98863 43.1356 43.325 2.97539 92.9125 2.97539C142.499 2.97539 182.842 43.1356 182.842 92.4994C182.842 141.866 142.499 182.028 92.9125 182.028Z" fill="white"/>
<path d="M163.967 92.8251L163.777 95.3045L167.827 98.0893L163.397 100.274L163.201 102.799L169.708 99.3645L174.218 99.7111L174.382 97.5645L169.885 97.2239L163.967 92.8251Z" fill="white"/>
<path d="M164.827 103.831L163.053 103.44L161.218 111.74L162.993 112.131L163.682 109.03L172.399 110.938L172.862 108.831L164.145 106.922L164.827 103.831Z" fill="white"/>
<path d="M159.959 115.345L170.169 118.671L170.844 116.621L160.635 113.287L159.959 115.345Z" fill="white"/>
<path d="M166.281 120.513C165.664 120.237 165.082 120.134 164.545 120.204C164.006 120.275 163.512 120.487 163.062 120.839C162.61 121.186 162.059 121.789 161.397 122.647C160.738 123.504 160.248 124.008 159.924 124.167C159.671 124.288 159.428 124.295 159.195 124.19C158.942 124.075 158.788 123.884 158.73 123.606C158.64 123.176 158.723 122.676 158.985 122.103C159.232 121.549 159.532 121.182 159.875 121.002C160.222 120.824 160.667 120.804 161.209 120.947L162.01 118.937C161.096 118.567 160.234 118.57 159.413 118.945C158.594 119.325 157.911 120.127 157.357 121.349C157.018 122.103 156.841 122.792 156.83 123.423C156.814 124.056 156.963 124.609 157.273 125.09C157.581 125.563 157.981 125.915 158.48 126.136C159.256 126.48 160.046 126.48 160.857 126.12C161.435 125.865 162.09 125.268 162.834 124.331C163.407 123.603 163.787 123.14 163.971 122.945C164.246 122.663 164.493 122.489 164.716 122.425C164.939 122.364 165.166 122.383 165.4 122.489C165.759 122.651 166.003 122.953 166.129 123.397C166.252 123.841 166.17 124.378 165.884 125.013C165.611 125.612 165.245 126.016 164.783 126.234C164.323 126.452 163.742 126.477 163.042 126.3L162.364 128.299C163.516 128.664 164.532 128.64 165.403 128.237C166.273 127.831 166.987 127.008 167.548 125.777C167.929 124.932 168.13 124.173 168.149 123.498C168.166 122.821 167.999 122.217 167.651 121.69C167.3 121.155 166.843 120.766 166.281 120.513Z" fill="white"/>
<path d="M159.757 132.087C159.313 132.165 158.853 132.326 158.366 132.568C158.765 131.707 158.872 130.938 158.691 130.256C158.506 129.576 158.078 129.017 157.397 128.582C156.868 128.239 156.308 128.061 155.722 128.057C155.138 128.052 154.627 128.212 154.181 128.544C153.735 128.873 153.202 129.52 152.574 130.479L150.094 134.297L159.111 140.108L160.29 138.296L156.527 135.871L156.766 135.502C157.037 135.085 157.268 134.805 157.461 134.655C157.654 134.504 157.895 134.409 158.192 134.351C158.484 134.297 159.132 134.261 160.136 134.253L162.951 134.206L164.361 132.039L161.889 131.999C160.911 131.982 160.195 132.008 159.757 132.087ZM156.909 131.899C156.843 132.164 156.527 132.729 155.96 133.599L155.088 134.939L152.799 133.467L153.72 132.049C154.199 131.319 154.495 130.882 154.611 130.745C154.852 130.487 155.117 130.334 155.407 130.293C155.703 130.252 155.998 130.328 156.302 130.525C156.57 130.7 156.759 130.907 156.86 131.143C156.959 131.383 156.975 131.633 156.909 131.899Z" fill="white"/>
<path d="M151.431 146.434L149.244 144.496L152.827 140.483L151.473 139.287L147.892 143.302L146.111 141.726L149.961 137.412L148.604 136.211L143.312 142.137L151.341 149.242L156.773 143.164L155.419 141.967L151.431 146.434Z" fill="white"/>
<path d="M140.583 144.663L143.694 152.404L136.49 148.091L134.694 149.597L144.548 155.319L146.32 153.835L142.343 143.187L140.583 144.663Z" fill="white"/>
<path d="M131.682 151.475L137.702 160.336L139.5 159.126L133.48 150.265L131.682 151.475Z" fill="white"/>
<path d="M127.748 153.884L131.084 160.207L123.855 155.92L121.985 156.897L126.981 166.367L128.765 165.435L125.507 159.257L132.601 163.426L134.524 162.419L129.531 152.949L127.748 153.884Z" fill="white"/>
<path d="M119.549 157.93L117.496 158.621L119.394 164.227C119.667 165.032 119.831 165.614 119.888 165.98C119.944 166.345 119.865 166.697 119.649 167.032C119.433 167.368 119.034 167.637 118.452 167.83C117.879 168.025 117.383 168.049 116.966 167.911C116.55 167.771 116.227 167.513 115.999 167.125C115.858 166.883 115.645 166.327 115.351 165.455L113.487 159.966L111.431 160.657L113.267 166.063C113.649 167.199 114.01 168.035 114.338 168.569C114.564 168.927 114.882 169.239 115.294 169.5C115.707 169.758 116.203 169.914 116.783 169.968C117.36 170.024 118.137 169.889 119.106 169.561C119.912 169.292 120.531 168.969 120.961 168.595C121.39 168.223 121.696 167.813 121.878 167.369C122.059 166.921 122.122 166.43 122.064 165.889C122.002 165.348 121.764 164.471 121.352 163.253L119.549 157.93Z" fill="white"/>
<path d="M102.276 162.381L102.71 166.568L98.4807 167.002L98.048 162.814L95.8926 163.033L96.9913 173.675L99.1467 173.455L98.6656 168.799L102.895 168.367L103.375 173.019L105.536 172.8L104.437 162.159L102.276 162.381Z" fill="white"/>
<path d="M87.1581 165.283C87.6865 164.743 88.346 164.491 89.1398 164.534C89.716 164.566 90.1953 164.751 90.5814 165.092C90.9668 165.436 91.2068 165.887 91.3031 166.448L93.4763 166.053C93.2763 165.185 92.9459 164.511 92.4838 164.025C91.705 163.212 90.6613 162.77 89.3509 162.699C87.8471 162.617 86.6094 163.045 85.6307 163.981C84.6579 164.914 84.1229 166.271 84.0279 168.045C83.9354 169.73 84.3209 171.077 85.1869 172.095C86.0515 173.113 87.1974 173.658 88.6193 173.737C89.7711 173.797 90.7367 173.567 91.5162 173.042C92.2969 172.514 92.8791 171.678 93.2632 170.526L91.1995 169.751C90.9786 170.524 90.6476 171.082 90.2143 171.427C89.777 171.767 89.2729 171.923 88.698 171.89C87.9192 171.849 87.301 171.531 86.8448 170.931C86.3852 170.332 86.1945 169.356 86.2672 168.006C86.3367 166.73 86.6311 165.826 87.1581 165.283Z" fill="white"/>
<path d="M72.3388 171.162L80.3398 172.818L80.7069 171.054L74.8312 169.838L75.4265 166.99L80.7069 168.082L81.0766 166.316L75.7955 165.226L76.2793 162.901L81.955 164.075L82.3254 162.303L74.5284 160.689L72.3388 171.162Z" fill="white"/>
<path d="M64.783 157.348L64.1649 159.053L67.1653 160.13L64.1347 168.489L66.178 169.221L69.206 160.864L72.1979 161.938L72.8148 160.233L64.783 157.348Z" fill="white"/>
<path d="M56.6941 165.266L58.6503 166.198L63.2882 156.548L61.3319 155.616L56.6941 165.266Z" fill="white"/>
<path d="M45.0845 158.516L47.0381 159.73L49.0794 158.137L52.7216 160.399L52.2274 162.956L54.2294 164.198L56.2721 152.859L54.3205 151.648L45.0845 158.516ZM53.0927 158.503L50.6042 156.957L53.9482 154.359L53.0927 158.503Z" fill="white"/>
<path d="M48.003 147.081L45.2281 150.264L42.0212 147.489L44.7948 144.31L43.1526 142.896L36.1114 150.977L37.7516 152.39L40.8294 148.855L44.0403 151.628L40.9612 155.163L42.6007 156.576L49.6386 148.5L48.003 147.081Z" fill="white"/>
<path d="M34.6417 140.838L33.2506 141.994L34.8416 143.895L33.7927 144.765C33.387 144.674 32.9707 144.515 32.54 144.277C32.1119 144.041 31.7527 143.746 31.4603 143.399C30.871 142.698 30.6442 141.927 30.7713 141.084C30.8985 140.246 31.4524 139.421 32.4345 138.609C33.3457 137.856 34.2071 137.501 35.0265 137.546C35.8479 137.593 36.5605 137.981 37.1688 138.702C37.5667 139.181 37.7844 139.677 37.8139 140.193C37.848 140.707 37.7083 141.191 37.3989 141.642L39.085 143.035C39.7077 142.243 39.9955 141.381 39.9437 140.451C39.8965 139.52 39.4436 138.545 38.5913 137.526C37.9358 136.739 37.2508 136.196 36.5342 135.897C35.6007 135.502 34.6495 135.398 33.682 135.592C32.7118 135.79 31.7973 136.243 30.9392 136.953C30.1433 137.609 29.5442 138.377 29.1397 139.256C28.7306 140.137 28.6198 141.046 28.7896 141.986C28.9607 142.926 29.4065 143.825 30.1237 144.687C30.69 145.364 31.3764 145.924 32.188 146.371C32.9936 146.82 33.7108 147.076 34.3434 147.146L37.6342 144.418L34.6417 140.838Z" fill="white"/>
<path d="M32.7543 129.905L26.5647 133.519L30.5294 126.131L29.4635 124.318L20.1941 129.727L21.2141 131.457L27.2583 127.93L23.4056 135.178L24.505 137.045L33.7744 131.639L32.7543 129.905Z" fill="white"/>
<path d="M26.3234 116.87L14.7911 116.881L15.6269 119.012L18.2255 118.953L19.7844 122.937L17.8571 124.69L18.7126 126.879L27.1566 119.001L26.3234 116.87ZM21.22 121.633L20.1534 118.914L24.3981 118.816L21.22 121.633Z" fill="white"/>
<path d="M23.9923 109.42L19.8598 110.315L18.9623 106.181L23.0916 105.287L22.6308 103.178L12.1328 105.446L12.593 107.553L17.1832 106.561L18.0859 110.694L13.4918 111.688L13.9533 113.802L24.4506 111.531L23.9923 109.42Z" fill="white"/>
<path d="M12.9831 101.103C13.539 101.409 14.1237 101.546 14.7419 101.506C15.4197 101.464 15.9796 101.286 16.4234 100.975C16.8632 100.662 17.2041 100.247 17.4395 99.7273C17.6722 99.2072 17.8839 98.4142 18.0668 97.3485C18.2504 96.2892 18.447 95.6137 18.6608 95.3292C18.826 95.1021 19.037 94.9865 19.2901 94.967C19.5693 94.9467 19.7955 95.0512 19.9771 95.2731C20.2564 95.6059 20.4157 96.0902 20.455 96.7161C20.4956 97.3217 20.4019 97.7844 20.1777 98.1042C19.9548 98.4175 19.5726 98.6407 19.0279 98.7686L19.256 100.923C20.2406 100.824 21.003 100.42 21.5524 99.7071C22.1011 98.9957 22.3331 97.9659 22.2486 96.6286C22.1987 95.8076 22.0316 95.1106 21.7464 94.548C21.4632 93.9847 21.0712 93.5644 20.5789 93.2819C20.0807 93.0051 19.5628 92.8792 19.0167 92.9157C18.1684 92.9679 17.4677 93.3393 16.9196 94.033C16.5283 94.5251 16.2261 95.3573 16.013 96.5235C15.8419 97.4372 15.7226 98.0265 15.6498 98.2837C15.5384 98.6622 15.4027 98.9285 15.2336 99.0877C15.0644 99.247 14.8514 99.3312 14.6003 99.3488C14.2037 99.3743 13.849 99.2189 13.5298 98.8835C13.2132 98.5506 13.0316 98.037 12.9922 97.3439C12.9509 96.686 13.084 96.1548 13.3908 95.7508C13.6976 95.3455 14.2011 95.0583 14.9025 94.8867L14.5662 92.8015C13.3744 93.0162 12.4881 93.5064 11.906 94.2693C11.3265 95.0283 11.0774 96.0863 11.1613 97.434C11.2164 98.362 11.396 99.1269 11.6949 99.7312C11.9965 100.341 12.4265 100.796 12.9831 101.103Z" fill="white"/>
<path d="M67.9578 103.081H66.4619V112.911H67.9578V103.081Z" fill="white"/>
<path d="M71.1739 100.297H69.6747V111.266H71.1739V100.297Z" fill="white"/>
<path d="M77.5957 96.5829H76.0977V108.393H77.5957V96.5829Z" fill="white"/>
<path d="M74.3868 98.358H72.8889V109.766H74.3868V98.358Z" fill="white"/>
<path d="M80.8118 95.2737H79.3158V107.49H80.8118V95.2737Z" fill="white"/>
<path d="M84.0161 94.2582H82.5201V106.635H84.0161V94.2582Z" fill="white"/>
<path d="M64.743 106.136H63.2451V114.966H64.743V106.136Z" fill="white"/>
<path d="M61.5348 110.405H60.0388V117.225H61.5348V110.405Z" fill="white"/>
<path d="M58.318 114.89H56.8201V119.809H58.318V114.89Z" fill="white"/>
<path d="M55.1091 118.481H53.6106V121.905H55.1091V118.481Z" fill="white"/>
<path d="M51.895 121.133H50.399V123.632H51.895V121.133Z" fill="white"/>
<path d="M48.6841 123.384H47.1882V125.223H48.6841V123.384Z" fill="white"/>
<path d="M119.367 103.081H117.871V112.911H119.367V103.081Z" fill="white"/>
<path d="M116.15 100.293H114.652V111.266H116.15V100.293Z" fill="white"/>
<path d="M109.73 96.5829H108.234V108.393H109.73V96.5829Z" fill="white"/>
<path d="M112.939 98.358H111.441V109.766H112.939V98.358Z" fill="white"/>
<path d="M106.51 95.2737H105.014V107.49H106.51V95.2737Z" fill="white"/>
<path d="M103.297 94.2582H101.798V106.635H103.297V94.2582Z" fill="white"/>
<path d="M122.577 106.139H121.079V114.968H122.577V106.139Z" fill="white"/>
<path d="M125.787 110.405H124.292V117.225H125.787V110.405Z" fill="white"/>
<path d="M129.003 114.89H127.507V119.809H129.003V114.89Z" fill="white"/>
<path d="M132.221 118.481H130.724V121.905H132.221V118.481Z" fill="white"/>
<path d="M135.425 121.133H133.929V123.632H135.425V121.133Z" fill="white"/>
<path d="M138.637 123.384H137.142V125.223H138.637V123.384Z" fill="white"/>
<path d="M82.9475 142.648C83.468 142.18 83.8201 141.818 84.022 141.569C84.3203 141.184 84.5392 140.826 84.6775 140.477C84.8145 140.129 84.8847 139.767 84.8847 139.384C84.8847 138.706 84.6415 138.143 84.161 137.695C83.6759 137.239 83.0164 137.016 82.1707 137.016C81.4044 137.016 80.7587 137.207 80.2487 137.599C79.7354 137.994 79.4253 138.635 79.3322 139.533L80.9639 139.69C80.994 139.22 81.112 138.88 81.3146 138.676C81.5185 138.467 81.7905 138.37 82.1307 138.37C82.4736 138.37 82.7483 138.464 82.9436 138.664C83.1416 138.859 83.2386 139.13 83.2386 139.499C83.2386 139.828 83.1265 140.159 82.8997 140.499C82.7345 140.74 82.2802 141.207 81.5427 141.892C80.6249 142.732 80.0087 143.417 79.6987 143.932C79.3873 144.446 79.2024 144.987 79.1401 145.558H84.8847V144.044H81.6306C81.7145 143.897 81.8259 143.749 81.9655 143.593C82.1032 143.438 82.4303 143.128 82.9475 142.648Z" fill="white"/>
<path d="M89.9861 137.016C89.1549 137.016 88.5125 137.3 88.0484 137.884C87.4898 138.593 87.2106 139.747 87.2106 141.345C87.2106 142.978 87.4656 144.115 87.9749 144.752C88.4804 145.391 89.1536 145.705 89.9861 145.705C90.8154 145.705 91.4611 145.414 91.9226 144.837C92.4812 144.132 92.7591 142.971 92.7591 141.359C92.7591 139.753 92.4851 138.593 91.9279 137.893C91.4631 137.302 90.8154 137.016 89.9861 137.016ZM90.877 143.486C90.7931 143.818 90.6699 144.034 90.5158 144.164C90.3585 144.294 90.1808 144.35 89.9855 144.35C89.7869 144.35 89.6112 144.294 89.4538 144.167C89.3004 144.044 89.1746 143.792 89.073 143.418C88.974 143.043 88.9235 142.36 88.9235 141.359C88.9235 140.365 88.9773 139.654 89.0913 139.23C89.1785 138.907 89.2965 138.682 89.4538 138.56C89.6066 138.43 89.7869 138.37 89.9855 138.37C90.1808 138.37 90.3578 138.43 90.5119 138.56C90.6673 138.683 90.7931 138.933 90.896 139.306C90.9983 139.678 91.0475 140.365 91.0475 141.359C91.0481 142.359 90.9911 143.068 90.877 143.486Z" fill="white"/>
<path d="M96.2001 138.373C95.696 138.762 95.2345 139.026 94.8011 139.165V140.649C95.6166 140.378 96.3233 139.973 96.9186 139.413V145.558H98.5607V137.015H97.2326C97.0444 137.537 96.7016 137.986 96.2001 138.373Z" fill="white"/>
<path d="M105.07 140.988C105.892 140.54 106.299 139.944 106.299 139.197C106.299 138.67 106.103 138.195 105.701 137.78C105.213 137.27 104.569 137.013 103.765 137.013C103.296 137.013 102.87 137.103 102.488 137.28C102.114 137.456 101.817 137.698 101.606 138C101.39 138.311 101.235 138.723 101.128 139.234L102.639 139.492C102.683 139.126 102.798 138.841 102.999 138.643C103.199 138.453 103.439 138.356 103.722 138.356C104.006 138.356 104.231 138.441 104.4 138.609C104.572 138.781 104.655 139.005 104.655 139.296C104.655 139.632 104.54 139.897 104.308 140.104C104.074 140.309 103.738 140.406 103.291 140.392L103.113 141.721C103.402 141.641 103.653 141.599 103.866 141.599C104.183 141.599 104.453 141.718 104.675 141.961C104.896 142.202 105.006 142.524 105.006 142.937C105.006 143.373 104.892 143.716 104.661 143.971C104.43 144.224 104.145 144.351 103.804 144.351C103.491 144.351 103.223 144.247 102.999 144.035C102.78 143.822 102.643 143.512 102.59 143.108L101.007 143.307C101.086 144.015 101.381 144.6 101.89 145.043C102.402 145.481 103.041 145.705 103.818 145.705C104.63 145.705 105.314 145.44 105.863 144.917C106.413 144.389 106.687 143.754 106.687 143.004C106.687 142.492 106.541 142.057 106.251 141.686C105.953 141.323 105.562 141.084 105.07 140.988Z" fill="white"/>
<path d="M106.632 131.693H104.623V130.899H102.612V130.097H98.3522L99.9983 121.258C100.03 121.195 100.05 121.129 100.05 121.056C100.05 120.975 100.028 120.897 99.9865 120.83L97.9943 111.956C97.9943 111.952 97.9963 111.952 97.9963 111.948C97.9963 111.919 97.9845 111.9 97.9799 111.87L98.9888 105.959H100.092V93.4999H98.5941V98.2791L97.6442 93.757C97.6482 93.7315 97.6587 93.7126 97.6587 93.6904C97.6587 93.6656 97.6383 93.6519 97.6344 93.6304L99.0209 84.6722C99.0288 84.635 99.0406 84.6031 99.0406 84.5659C99.0406 84.5287 99.0229 84.498 99.0143 84.4634C99.0104 84.4516 99.0084 84.4406 99.0038 84.4282C98.996 84.4053 98.9979 84.374 98.9848 84.3511L97.2935 75.3597C97.2935 75.3558 97.2876 75.3558 97.2876 75.3519L98.4906 66.508C98.5161 66.4499 98.5325 66.3879 98.5325 66.3226C98.5325 66.2489 98.5142 66.1751 98.4794 66.1131L96.9284 57.2424C96.9304 57.2255 96.9402 57.2118 96.9402 57.1941C96.9402 57.1804 96.9284 57.1732 96.9284 57.1654L98.0349 48.1257L98.0599 47.6258H93.7451L93.3412 38.7238H92.4864L92.0793 47.6258H87.7416L88.9025 57.1491L87.3207 66.2449C87.3168 66.26 87.3227 66.2763 87.3227 66.2913C87.3207 66.3226 87.3102 66.3494 87.3141 66.3826L88.5263 75.3708L86.8245 84.436C86.8205 84.4438 86.8205 84.4549 86.8186 84.4627L86.814 84.4817C86.812 84.4902 86.8159 84.4973 86.8159 84.5091C86.81 84.5502 86.8002 84.5907 86.8081 84.6331L88.1985 93.6774L87.2407 98.2543V93.4979H85.7448V105.957H86.8258L87.8379 111.908C87.836 111.917 87.834 111.93 87.834 111.942L85.8116 120.96C85.8051 120.984 85.8116 121.014 85.8116 121.041C85.8116 121.073 85.8031 121.103 85.8077 121.134L87.4748 130.094H83.2072V130.896H81.1992V131.69H79.19V132.584H106.631V131.693H106.632ZM92.8974 103.838L96.792 111.502H89.0166L92.8974 103.838ZM92.9033 85.6473L96.4675 93.2453H89.3555L92.9033 85.6473ZM95.812 56.749H90.0196L92.9132 49.3083L95.812 56.749ZM92.9014 67.4797L96.1404 74.9988H89.6636L92.9014 67.4797ZM92.9092 122L97.3139 130.097H88.5013L92.9092 122ZM93.6408 120.614L94.9336 118.057L97.3683 113.262L99.0215 120.614H93.6408V120.614ZM93.6166 102.374L97.0136 95.1106L98.5378 102.374H93.6166ZM93.5805 84.1208L94.3003 82.448L96.6806 76.962L98.0323 84.1208H93.5805ZM93.5608 65.8775L96.3004 58.8525L97.5321 65.8775H93.5608ZM89.5142 58.8531L91.3412 63.5326L92.2537 65.8782H88.2916L89.5142 58.8531ZM89.1379 76.9659L90.0747 79.1392L92.2242 84.1208H87.7914L89.1379 76.9659ZM88.816 95.1027L92.2104 102.374H87.2938L88.816 95.1027ZM88.4528 113.281L92.1658 120.614H86.8094L88.4528 113.281Z" fill="white"/>
<path d="M115.27 152.071C116.118 152.071 116.857 151.937 117.53 151.658C119.571 150.815 120.845 148.749 122.016 146.632C122.819 146.7 123.63 146.758 124.409 146.758C126.245 146.758 127.591 146.434 128.642 145.733C130.471 144.515 131.315 142.252 132.046 139.955C134.448 139.688 136.841 139.305 138.39 137.766C139.938 136.221 140.317 133.832 140.59 131.435C142.887 130.706 145.156 129.868 146.369 128.059C147.582 126.258 147.492 123.857 147.289 121.466C149.421 120.3 151.497 119.032 152.346 116.999C153.179 114.997 152.603 112.645 151.931 110.329C153.779 108.779 155.557 107.138 155.988 104.99C156.411 102.876 155.4 100.695 154.293 98.5643C155.809 96.6743 157.226 94.7098 157.226 92.4896C157.226 90.2875 155.829 88.3335 154.329 86.4585C155.425 84.3361 156.404 82.1609 155.974 80.0091C155.539 77.8437 153.778 76.197 151.934 74.6457C152.603 72.3328 153.177 69.9832 152.344 67.9849C151.498 65.9512 149.416 64.6845 147.288 63.5182C147.491 61.1282 147.592 58.7187 146.383 56.9252C145.16 55.1044 142.889 54.2638 140.586 53.5361C140.315 51.1461 139.932 48.7633 138.387 47.2237C136.833 45.6822 134.43 45.3024 132.021 45.0335C131.288 42.744 130.446 40.4839 128.631 39.2752C127.565 38.5684 126.204 38.2369 124.349 38.2369C123.587 38.2369 122.796 38.293 122.012 38.3609C120.84 36.2457 119.567 34.1774 117.527 33.3349C116.852 33.0575 116.113 32.9205 115.267 32.9205C113.845 32.9205 112.326 33.3173 110.829 33.7474C109.269 31.9037 107.616 30.1337 105.454 29.7036C105.125 29.6396 104.784 29.6051 104.432 29.6051C102.634 29.6051 100.797 30.4665 99.0012 31.3907C97.1093 29.8876 95.1361 28.4792 92.9118 28.4792C90.6981 28.4792 88.738 29.8661 86.8539 31.3613C85.0748 30.4476 83.2498 29.6161 81.4365 29.6161C81.0674 29.6161 80.7102 29.6514 80.3647 29.7206C78.1876 30.1507 76.5337 31.9056 74.9741 33.7434C73.4847 33.3134 71.9717 32.9205 70.5577 32.9205C69.7095 32.9205 68.972 33.0575 68.2968 33.3349C66.2541 34.1774 64.9817 36.2496 63.8076 38.3687C63.0045 38.2995 62.1949 38.2388 61.4142 38.2388C59.5721 38.2388 58.2302 38.5665 57.1787 39.2654C55.3517 40.4813 54.5067 42.742 53.7764 45.0374C51.3797 45.3043 48.9863 45.6861 47.4412 47.2244C45.8895 48.7698 45.5113 51.1598 45.2399 53.5576C42.9396 54.2879 40.6661 55.1265 39.4534 56.9337C38.2439 58.7389 38.3298 61.1361 38.5304 63.5267C36.4031 64.689 34.3283 65.9538 33.4866 67.9855C32.6521 69.9878 33.2257 72.3438 33.9009 74.6581C32.0457 76.2114 30.2666 77.8534 29.8346 80.0032C29.4124 82.1171 30.4219 84.2996 31.5285 86.4285C30.0155 88.3146 28.6015 90.2751 28.6015 92.4902C28.6015 94.6948 30.0004 96.6462 31.5023 98.5239C30.4009 100.649 29.4183 102.827 29.8503 104.982C30.2829 107.148 32.0457 108.794 33.893 110.351C33.2218 112.659 32.6514 115.005 33.4846 117C34.3283 119.033 36.4071 120.301 38.5376 121.467C38.3304 123.861 38.2295 126.266 39.439 128.067C40.6629 129.886 42.9343 130.728 45.2405 131.456C45.51 133.845 45.8941 136.228 47.4366 137.766C48.9876 139.305 51.3883 139.688 53.7967 139.957C54.5323 142.247 55.3727 144.51 57.1898 145.718C58.2558 146.426 59.6167 146.757 61.4725 146.757C62.2362 146.757 63.0288 146.698 63.8122 146.634C64.983 148.75 66.2554 150.815 68.2941 151.655C68.9713 151.937 69.7108 152.07 70.5571 152.07C71.975 152.07 73.4952 151.676 74.9899 151.244C76.552 153.09 78.2021 154.864 80.364 155.292C80.6925 155.359 81.0379 155.39 81.3867 155.39C83.1868 155.39 85.0283 154.529 86.8231 153.603C88.7183 155.11 90.6882 156.516 92.9132 156.516C95.1223 156.516 97.0798 155.128 98.9652 153.634C100.744 154.55 102.568 155.383 104.384 155.382C104.752 155.382 105.111 155.349 105.454 155.279C107.633 154.848 109.289 153.09 110.848 151.251C112.341 151.68 113.854 152.071 115.27 152.071ZM105.463 148.613C105.005 148.613 104.564 148.656 104.157 148.734C102.25 149.111 100.491 150.499 98.7908 151.866C96.853 150.856 94.8523 149.832 92.9066 149.832C90.9295 149.836 88.934 150.831 86.9969 151.837C85.3055 150.479 83.5605 149.105 81.6705 148.734C81.2621 148.656 80.819 148.613 80.3595 148.613C78.7999 148.613 77.1348 149.074 75.5104 149.547C74.1206 147.885 72.6699 146.204 70.8776 145.462C69.9618 145.082 68.8894 144.906 67.5003 144.906C66.5746 144.906 65.6064 144.987 64.6585 145.07C63.6181 143.172 62.5306 141.248 60.9173 140.173C59.2954 139.092 57.0902 138.814 54.9289 138.582C54.2753 136.511 53.5738 134.405 52.1913 133.029C50.814 131.664 48.6946 130.972 46.6185 130.326C46.3825 128.167 46.1111 125.964 45.0209 124.344C43.9452 122.742 42.0146 121.66 40.1109 120.625C40.3017 118.462 40.461 116.252 39.7084 114.438C38.9709 112.66 37.2717 111.22 35.602 109.829C36.2143 107.748 36.8056 105.61 36.4195 103.685C36.0452 101.787 34.6476 100.038 33.2788 98.3476C34.2942 96.4178 35.3248 94.4266 35.3228 92.4896C35.3208 90.5218 34.3165 88.5326 33.307 86.6021C34.6666 84.9209 36.0485 83.1816 36.4208 81.3026C36.803 79.3852 36.2189 77.2504 35.6073 75.1737C37.2789 73.7875 38.9663 72.3465 39.7117 70.5608C40.4642 68.755 40.2977 66.534 40.1037 64.3627C42.0107 63.3328 43.9452 62.2462 45.0249 60.6446C46.1085 59.0287 46.3838 56.8365 46.6205 54.6867C48.6985 54.0321 50.8186 53.339 52.1972 51.9593C53.5738 50.5881 54.2654 48.4807 54.9125 46.4105C57.0797 46.1782 59.2941 45.9028 60.9212 44.8201C62.5332 43.7465 63.6181 41.8231 64.6558 39.9311C65.59 40.0127 66.5405 40.0923 67.4563 40.0923C68.8572 40.0923 69.9389 39.9142 70.8678 39.5324C72.6568 38.7988 74.1029 37.1058 75.4953 35.4416C77.1224 35.918 78.7947 36.3795 80.3601 36.3795C80.8216 36.3795 81.2628 36.3403 81.6712 36.2613C83.5736 35.8854 85.3305 34.4946 87.0277 33.1332C88.9668 34.1402 90.9668 35.1669 92.9145 35.1669C94.8922 35.1649 96.889 34.1657 98.8282 33.158C100.518 34.5162 102.263 35.8874 104.154 36.2613C104.562 36.3403 105.005 36.3795 105.462 36.3795C107.024 36.3795 108.686 35.9226 110.308 35.4475C111.7 37.1098 113.146 38.791 114.941 39.5324C115.857 39.9122 116.931 40.0891 118.318 40.0891C119.248 40.0891 120.218 40.0075 121.164 39.9239C122.207 41.8218 123.296 43.7471 124.906 44.8207C126.53 45.8989 128.731 46.1762 130.89 46.4112C131.544 48.4814 132.244 50.5887 133.628 51.9678C135.008 53.3337 137.129 54.021 139.207 54.6677C139.442 56.826 139.716 59.0261 140.805 60.6453C141.884 62.2449 143.809 63.327 145.713 64.3594C145.521 66.5249 145.361 68.7406 146.114 70.5537C146.851 72.3334 148.552 73.7725 150.223 75.1613C149.61 77.2432 149.027 79.378 149.406 81.2987C149.784 83.194 151.179 84.9444 152.548 86.6354C151.531 88.5659 150.5 90.5616 150.502 92.5019C150.504 94.4703 151.505 96.4589 152.517 98.3875C151.157 100.067 149.78 101.802 149.406 103.685C149.027 105.602 149.611 107.737 150.221 109.814C148.548 111.201 146.859 112.645 146.112 114.431C145.358 116.236 145.526 118.457 145.715 120.624C143.811 121.659 141.883 122.744 140.807 124.348C139.72 125.963 139.444 128.155 139.21 130.309C137.128 130.958 135.008 131.656 133.623 133.036C132.251 134.405 131.56 136.515 130.91 138.581C128.746 138.813 126.535 139.088 124.908 140.172C123.296 141.246 122.209 143.17 121.169 145.066C120.236 144.984 119.28 144.905 118.362 144.905C116.965 144.905 115.88 145.081 114.953 145.463C113.168 146.199 111.72 147.888 110.327 149.55C108.701 149.078 107.032 148.613 105.463 148.613ZM116.959 150.283C116.468 150.484 115.914 150.584 115.271 150.584C114.231 150.584 113.098 150.33 111.902 150.002C113.084 148.613 114.231 147.374 115.524 146.843C116.264 146.537 117.167 146.396 118.363 146.396C119.01 146.396 119.693 146.44 120.377 146.496C119.401 148.209 118.387 149.693 116.959 150.283ZM127.81 144.496C127.016 145.025 125.936 145.271 124.409 145.271C123.892 145.271 123.35 145.24 122.801 145.2C123.662 143.664 124.576 142.188 125.741 141.411C126.922 140.625 128.65 140.343 130.412 140.138C129.794 141.999 129.088 143.642 127.81 144.496ZM137.33 136.711C136.251 137.787 134.496 138.15 132.541 138.395C133.083 136.714 133.69 135.083 134.685 134.089C135.688 133.087 137.33 132.475 139.022 131.931C138.778 133.884 138.411 135.637 137.33 136.711ZM145.127 127.232C144.281 128.494 142.637 129.193 140.771 129.809C140.979 128.06 141.261 126.344 142.051 125.178C142.83 124.015 144.305 123.109 145.852 122.254C145.991 124.197 145.969 125.976 145.127 127.232ZM150.962 116.431C150.368 117.855 148.874 118.865 147.151 119.838C147.009 118.067 146.949 116.315 147.493 115.006C148.036 113.709 149.318 112.527 150.676 111.383C151.201 113.277 151.543 115.036 150.962 116.431ZM154.517 104.701C154.22 106.203 152.963 107.479 151.472 108.761C150.993 107.063 150.601 105.372 150.875 103.976C151.146 102.613 152.135 101.256 153.266 99.8422C154.146 101.583 154.814 103.231 154.517 104.701ZM153.537 97.1115C152.722 95.5282 152 93.9364 151.998 92.5013C151.996 91.0935 152.718 89.5461 153.568 87.9132C154.738 89.4208 155.73 90.9624 155.73 92.4922C155.73 94.0409 154.718 95.5909 153.537 97.1115ZM154.506 80.3008C154.804 81.796 154.142 83.489 153.298 85.1865C152.154 83.7553 151.151 82.3854 150.876 81.0122C150.6 79.6116 150.993 77.9194 151.475 76.2199C152.924 77.4756 154.205 78.7926 154.506 80.3008ZM150.96 68.5559C151.54 69.9487 151.201 71.7056 150.677 73.5963C149.281 72.4202 148.036 71.2755 147.497 69.9859C146.95 68.6617 147.006 66.9184 147.148 65.1498C148.872 66.1235 150.366 67.1345 150.96 68.5559ZM145.139 57.756C145.98 59.0032 145.991 60.7836 145.849 62.7357C144.305 61.8814 142.828 60.9755 142.052 59.8171C141.26 58.643 140.975 56.9233 140.769 55.1644C142.639 55.7811 144.287 56.4821 145.139 57.756ZM139.018 53.0459C137.328 52.5095 135.686 51.9032 134.688 50.9111C133.683 49.912 133.069 48.279 132.521 46.5959C134.484 46.84 136.247 47.2022 137.328 48.281C138.407 49.3546 138.773 51.1037 139.018 53.0459ZM127.801 40.5146C129.069 41.3571 129.77 42.9979 130.389 44.8546C128.634 44.6497 126.915 44.3671 125.74 43.5826C124.575 42.8073 123.66 41.3323 122.801 39.7921C123.332 39.7569 123.853 39.7295 124.351 39.7295C125.896 39.7301 126.992 39.9801 127.801 40.5146ZM116.954 34.7139C118.382 35.3019 119.399 36.7861 120.373 38.496C119.675 38.5527 118.978 38.601 118.319 38.601C117.135 38.601 116.243 38.4614 115.516 38.1612C114.218 37.6208 113.027 36.3481 111.883 34.9978C113.084 34.6669 114.223 34.4131 115.269 34.4131C115.912 34.4131 116.466 34.5129 116.954 34.7139ZM105.165 31.1655C106.674 31.4677 107.957 32.7168 109.246 34.2003C107.515 34.6846 105.763 35.0624 104.446 34.7988C103.075 34.5318 101.713 33.5437 100.291 32.4166C102.059 31.5473 103.742 30.8908 105.165 31.1655ZM97.5439 32.1458C95.9542 32.957 94.3527 33.6762 92.9112 33.6801C91.4991 33.6801 89.9481 32.9629 88.3132 32.1223C89.8288 30.9567 91.3733 29.9705 92.9132 29.9705C94.4648 29.9705 96.0191 30.9717 97.5439 32.1458ZM80.6571 31.1812C82.1098 30.896 83.8424 31.5525 85.5664 32.3931C84.1334 33.532 82.7614 34.5292 81.3801 34.7988C80.0592 35.0624 78.2991 34.6806 76.5593 34.1964C77.8186 32.7573 79.1415 31.4814 80.6571 31.1812ZM68.869 34.7139C69.3594 34.5123 69.914 34.4131 70.559 34.4131C71.5968 34.4131 72.7302 34.6656 73.9213 34.9946C72.7427 36.3853 71.5928 37.6247 70.2962 38.1599C69.5567 38.462 68.654 38.6056 67.457 38.6056C66.8146 38.6056 66.1321 38.5593 65.4491 38.5051C66.4258 36.788 67.4413 35.3026 68.869 34.7139ZM58.0132 40.5048C58.8038 39.9775 59.8854 39.7314 61.4155 39.7314C61.9307 39.7314 62.4722 39.7588 63.0229 39.798C62.1641 41.3356 61.2516 42.8073 60.088 43.5826C58.9041 44.371 57.1761 44.6517 55.41 44.8566C56.0302 42.9979 56.7329 41.3552 58.0132 40.5048ZM48.5025 48.2817C49.5803 47.2068 51.3325 46.8445 53.2854 46.5985C52.7439 48.2817 52.1356 49.9165 51.1398 50.9085C50.1362 51.9097 48.4993 52.5219 46.8099 53.0642C47.0538 51.1128 47.4202 49.3585 48.5025 48.2817ZM40.6989 57.7645C41.5452 56.501 43.1933 55.804 45.057 55.1885C44.8518 56.9357 44.5673 58.6475 43.78 59.8177C42.9992 60.9755 41.517 61.8859 39.9706 62.7409C39.8323 60.7973 39.8533 59.0215 40.6989 57.7645ZM34.8678 68.5598C35.4618 67.1364 36.9512 66.1261 38.6733 65.155C38.8162 66.9256 38.8798 68.6799 38.3311 69.993C37.7935 71.2866 36.5126 72.4685 35.1569 73.6113C34.6305 71.7134 34.2877 69.9532 34.8678 68.5598ZM31.3049 80.2969C31.6065 78.7919 32.8658 77.5115 34.3572 76.2316C34.839 77.9265 35.2304 79.6175 34.9531 81.0135C34.6803 82.3769 33.6924 83.7344 32.559 85.1526C31.6773 83.412 31.0106 81.7654 31.3049 80.2969ZM32.2876 87.8826C33.0985 89.4652 33.8255 91.0583 33.8275 92.4935C33.8275 93.8999 33.1084 95.4395 32.2614 97.075C31.0925 95.5654 30.1 94.0298 30.1 92.4922C30.1 90.9461 31.1083 89.4006 32.2876 87.8826ZM31.3194 104.69C31.0178 103.195 31.6852 101.502 32.5328 99.8017C33.6754 101.23 34.6803 102.598 34.9531 103.974C35.2304 105.375 34.8351 107.077 34.35 108.777C32.9032 107.52 31.6203 106.203 31.3194 104.69ZM34.8678 116.431C34.2877 115.036 34.6279 113.29 35.151 111.4C36.548 112.573 37.7929 113.72 38.3258 115.01C38.8745 116.33 38.8182 118.074 38.6772 119.838C36.9531 118.864 35.4585 117.852 34.8678 116.431ZM40.6825 127.239C39.8441 125.99 39.8323 124.205 39.9752 122.253C41.519 123.105 42.9973 124.015 43.7787 125.174C44.5679 126.352 44.8531 128.075 45.0576 129.832C43.1913 129.215 41.54 128.511 40.6825 127.239ZM46.8066 131.949C48.4966 132.489 50.1355 133.096 51.1359 134.083C52.1375 135.083 52.7538 136.714 53.2992 138.395C51.3417 138.153 49.5803 137.788 48.4973 136.711C47.4202 135.64 47.0498 133.892 46.8066 131.949ZM58.0224 144.48C56.7526 143.638 56.0525 141.997 55.431 140.138C57.1898 140.342 58.9087 140.624 60.0847 141.411C61.2516 142.187 62.1667 143.664 63.0268 145.205C62.4965 145.241 61.9727 145.269 61.4725 145.269C59.9274 145.268 58.8287 145.021 58.0224 144.48ZM68.8671 150.279C67.4432 149.693 66.4271 148.21 65.453 146.501C66.1498 146.446 66.846 146.396 67.5003 146.396C68.6848 146.396 69.577 146.538 70.3034 146.836C71.602 147.375 72.7918 148.652 73.9351 149.999C72.7387 150.327 71.5987 150.582 70.5571 150.582C69.91 150.581 69.3574 150.484 68.8671 150.279ZM80.6551 153.832C79.1454 153.53 77.8625 152.281 76.5717 150.794C78.3089 150.317 80.0658 149.937 81.3808 150.197C82.7496 150.466 84.1144 151.45 85.535 152.579C83.765 153.454 82.0763 154.105 80.6551 153.832ZM88.2811 152.852C89.8681 152.042 91.4723 151.323 92.9112 151.322C94.3252 151.322 95.8716 152.038 97.5066 152.881C95.9929 154.042 94.4511 155.029 92.9132 155.029C91.3608 155.029 89.8078 154.025 88.2811 152.852ZM105.163 153.82C103.718 154.105 101.983 153.449 100.252 152.608C101.688 151.469 103.062 150.469 104.446 150.197C105.764 149.937 107.527 150.319 109.266 150.802C108.005 152.243 106.682 153.519 105.163 153.82Z" fill="white"/>
<path d="M60.8353 65.6725H55.6159L56.3016 65.2575L55.0927 63.3035L54.1422 63.885L55.252 65.6725H50.5878V66.7859H60.8353V65.6725Z" fill="white"/>
<path d="M61.5433 73.499H57.4737L59.4626 68.2055L58.28 68.1768L56.257 73.499H54.5827L54.5637 73.4096L55.0429 73.193L52.9989 68.2094H51.7442L53.9672 73.499H49.8038V74.6033H61.5433V73.499Z" fill="white"/>
<path d="M49.4039 87.9499L50.3643 88.502L52.0418 85.6415L51.0788 85.0894L49.4039 87.9499Z" fill="white"/>
<path d="M56.3861 86.9898L57.3406 86.4252L55.8165 83.8845L54.862 84.4543L56.3861 86.9898Z" fill="white"/>
<path d="M58.6484 85.3255L61.0326 88.2735L61.9012 87.5804L59.519 84.6278L58.6484 85.3255Z" fill="white"/>
<path d="M60.345 82.5094H56.2452V80.7545H61.3296V79.6385H56.2452V77.6864H55.1314V79.6385H49.8044V80.7545H55.1314V82.5094H51.0323V83.6209H60.345V82.5094Z" fill="white"/>
<path d="M57.555 88.312H54.3559C54.1429 88.2657 54.0354 88.1436 54.0098 87.9185V85.2094H52.894V88.5737C52.894 88.7649 52.9517 89.3967 53.6728 89.4202H58.32V89.4078H58.3613C59.009 89.3458 59.6494 88.1143 59.7681 87.8662L58.5357 87.3219C58.3443 87.7331 58.025 88.2232 57.555 88.312Z" fill="white"/>
<path d="M76.7041 88.1417L76.7146 88.1084V81.6179H80.2631V80.5717H76.7146V77.6505H75.6028V80.5717H69.4118V81.6179H75.197L75.1479 81.691C73.7666 83.7449 71.7757 85.5168 69.4118 86.7718V88.13C70.1447 87.8004 73.0993 86.3385 75.5156 83.2006L75.6035 83.0935L75.6015 87.3279C75.5176 87.7553 75.0043 87.9746 74.626 88.1332L74.5159 88.1874L75.1577 89.5429C75.4042 89.4222 76.6451 88.7924 76.7041 88.1417Z" fill="white"/>
<path d="M115.951 90.0552H117.003V78.3762H106.276V90.0552H107.329V89.3158H115.951V90.0552ZM107.329 79.4185H115.951V88.2722H107.329V79.4185Z" fill="white"/>
<path d="M112.999 85.1199L113.824 86.1041H112.19V84.0704H114.693V83.0243H112.19V81.5369H114.959V80.4946H108.379V81.5369H111.139V83.0243H108.642V84.0704H111.139V86.1041H108.142V87.1503H115.191V86.1021L113.811 84.4503L112.999 85.1199Z" fill="white"/>
<path d="M135.733 65.529L134.026 63.6748L133.252 64.3842L134.957 66.2436L135.733 65.529Z" fill="white"/>
<path d="M131.823 64.3268L130.98 63.7035L129.473 65.7228L130.315 66.346L131.823 64.3268Z" fill="white"/>
<path d="M128.234 65.6601L126.895 63.526L126.004 64.086L127.344 66.2162L128.234 65.6601Z" fill="white"/>
<path d="M124.191 70.66L124.857 71.6357C125.055 71.4941 125.592 71.0895 126.237 70.4257L126.318 70.3402V75.3551H127.375V70.6698L128.488 72.0162L129.331 71.3884L128.134 69.9434L129.217 68.9096L128.486 68.1637L127.502 69.093L127.445 69.1146L127.392 69.0447L127.415 69.016C127.801 68.4593 128.139 67.8869 128.407 67.3054H128.404L128.424 67.2611C128.607 66.8525 128.735 66.4068 128.776 66.2482H124.486V67.2904H127.093L127.053 67.3596C125.994 69.3077 124.46 70.4623 124.191 70.66Z" fill="white"/>
<path d="M128.848 70.3089L129.593 71.2324C129.672 71.1822 129.885 71.0347 130.187 70.7678L130.267 70.7018V75.3539H131.318V74.726H133.764V75.3539H134.816V70.4453L134.894 70.506C135.162 70.7129 135.444 70.9048 135.709 71.0582L136.418 70.1092C135.714 69.6942 134.07 68.5553 133.038 66.3246C133.038 66.3246 133.134 66.0492 133.166 65.9598L131.919 65.9291C130.878 68.7772 129.185 70.0668 128.848 70.3089ZM133.764 73.6772H131.318V71.1169H133.764V73.6772ZM130.945 69.9931C131.487 69.362 131.977 68.6297 132.394 67.8126L132.428 67.7408L132.475 67.8126C132.98 68.6447 133.581 69.3737 134.264 69.9892L134.359 70.0727H130.878L130.945 69.9931Z" fill="white"/>
<path d="M107.943 69.7339L105.843 70.4871V71.6377L107.975 70.8375V73.1694L107.971 73.2627H107.967C107.915 73.625 107.58 73.9506 106.971 74.2306L107.519 75.4276C107.766 75.3075 108.996 74.6783 109.021 74.0492L109.025 74.0028L109.057 70.427L110.461 69.9349V68.7804L109.025 69.3228V67.4105H110.461V66.363H109.025V63.4562H107.975V66.363H105.803V67.4105H107.975L107.943 69.7339Z" fill="white"/>
<path d="M112.09 69.2262L112.11 69.1759H112.193L112.203 69.2151C112.249 69.3698 112.679 70.7951 113.762 72.3275L113.785 72.3608L113.762 72.3876C113.285 72.9182 112.818 73.345 112.479 73.6511L112.41 73.6903V75.2357C113.176 74.7436 113.921 74.1099 114.568 73.3998L114.602 73.3607L114.637 73.3998C115.444 74.2594 116.351 74.9068 117.338 75.333L117.366 73.9787C116.642 73.6204 115.971 73.1133 115.373 72.4666L115.343 72.4352L115.369 72.4026C116.047 71.4393 116.525 70.382 116.792 69.2667L116.817 69.1642H116.819C116.869 68.9723 116.976 68.5285 117.028 68.1317H116.302V68.1356H112.09V65.1759H115.433V65.6641L115.429 65.7535H115.423C115.375 66.1157 115.043 66.4433 114.429 66.7298L114.976 67.9131C115.221 67.7989 116.415 67.1834 116.47 66.5634L116.486 66.5288V64.1284H111.037V75.3082H112.089V69.2262H112.09ZM115.596 69.1759L115.575 69.2399C115.375 69.9624 115.034 70.6692 114.576 71.3492L114.536 71.4073L114.492 71.3492C113.912 70.4584 113.588 69.6485 113.448 69.2399L113.429 69.1759H115.596Z" fill="white"/>
<path d="M134.034 88.3316C133.851 88.3316 133.623 88.1645 133.353 87.9753L133.28 87.9185C132.507 87.3083 131.917 86.313 131.525 84.9477L131.507 84.8876H134.77V83.8375H131.26L131.254 83.799C131.143 83.1601 131.091 82.6249 131.071 82.2803V82.234H134.77V78.5851L125.635 78.5812V88.3316H125.643L125.647 88.378C125.683 89.0071 126.888 89.6173 127.135 89.7374L127.668 88.5816C127.281 88.4047 126.686 88.0373 126.686 87.5028V84.8883H130.274L130.28 84.9229C130.763 86.8247 131.583 88.1985 132.717 88.996L132.742 89.0254C133.31 89.3967 133.8 89.5925 134.215 89.5925C135.402 89.5925 135.589 87.9753 135.615 87.6653H134.351C134.344 87.9675 134.299 88.3316 134.034 88.3316ZM126.684 83.8375V82.234H129.881L129.883 82.2764C129.9 82.6099 129.939 83.1399 130.047 83.7795L130.053 83.8375H126.684ZM126.684 79.6313H133.722V81.1846H126.684V79.6313Z" fill="white"/>
<path d="M70.9458 69.362V69.3156H72.9819V72.2943H73.0101L72.9878 72.3563C72.9 72.6506 72.6339 72.8712 71.6092 73.0337L71.7482 74.029C72.782 73.8783 73.842 73.5493 74.0053 72.3361L74.0367 72.3015L74.0407 72.0456H74.0367V68.2708H70.9452V66.6607H75.1669L75.1688 66.7031C75.3321 68.524 75.6651 70.1125 76.1463 71.472C75.5432 72.2232 74.8857 72.8706 74.2203 73.3698V74.8572C75.0744 74.3031 75.8978 73.5748 76.6668 72.7074L76.712 72.6572L76.7441 72.7152C77.2581 73.6492 78.2198 75.0086 79.4535 75.0086C79.6685 75.0086 79.8875 74.9858 80.1169 74.9355V73.657C79.6593 73.7928 78.6406 73.9435 77.5393 71.6156C78.2696 70.6085 78.912 69.4775 79.4515 68.2453L78.1608 68.2186C77.8376 68.9084 77.4783 69.5506 77.0752 70.1804L77.0168 70.2718L76.9886 70.1673C76.6917 69.1479 76.4767 67.9823 76.3508 66.7097L76.3469 66.6614H79.7675V65.6041L78.5148 63.4543H77.1951L78.4721 65.6119H76.2715L76.2695 65.5714C76.2276 64.8039 76.2217 64.0606 76.2498 63.4288H75.0699C75.0548 63.7584 75.041 64.5279 75.0862 65.5669L75.0902 65.6113H69.7134V66.5994L69.7095 66.6385V69.4703C69.7095 70.6131 69.562 73.3711 68.2338 74.5211L69.4682 75.2109C69.6629 74.9708 70.9458 73.2237 70.9458 69.362Z" fill="white"/>
<path d="M36.0577 51.0587L36.0603 51.0554L36.0577 51.0587L36.0544 51.0554V51.0626L34.2444 52.407L34.4804 54.0184L32.1473 58.3989L25.0838 54.6769L28.3189 48.595L27.6286 48.2275H27.6234L25.8023 49.5792L26.0475 51.1964L24.3883 54.3088L18.3625 51.1364L17.3163 53.1021L31.1017 60.3693L27.6588 66.8324L28.3517 67.2024L36.7597 51.4229L36.0577 51.0587Z" fill="white"/>
<path d="M75.9581 21.2682L76.1155 22.0377L82.1321 20.8166L83.2347 26.2074L85.4262 25.7564L84.3229 20.3715L87.0238 19.8253L86.8664 19.0473L84.1636 19.5968L81.9662 8.88831L79.7728 9.33993L81.9715 20.0445L75.9581 21.2682Z" fill="white"/>
<path d="M79.9982 14.1447C80.7718 12.3512 76.2039 12.053 76.2039 12.053L75.9922 12.4968C78.0696 13.665 78.0998 14.1878 78.8012 14.503C79.3145 14.7314 79.8291 14.5493 79.9982 14.1447Z" fill="white"/>
<path d="M80.7783 18.6133C81.7322 16.9204 77.22 16.1464 77.22 16.1464L76.965 16.568C78.9094 17.945 78.8753 18.46 79.5426 18.8555C80.033 19.1381 80.5633 19.0004 80.7783 18.6133Z" fill="white"/>
<path d="M70.9229 14.1368L71.4171 16.5463L68.2954 17.1794L68.4567 17.9547L71.0953 17.4163C71.05 18.0839 70.7282 22.3587 69.5574 25.0959L70.1251 25.3844C70.1251 25.3844 71.5155 23.3038 72.293 20.8172L73.7928 28.1209L75.9843 27.6771L74.1678 18.8123C75.4376 19.8213 75.496 20.2572 76.0702 20.594C76.5586 20.8707 77.0909 20.7434 77.3053 20.3519C78.1234 18.8958 74.9092 18.1283 73.9882 17.9391L73.7692 16.8694L76.4249 16.329L76.2734 15.5602L73.6139 16.1006L73.0265 13.2355C73.9587 12.7845 74.8155 12.2826 75.3629 11.7677L73.1852 10.6752C73.1852 10.6752 71.1339 12.8961 67.7507 14.5101L67.8824 15.1686C67.8824 15.1693 69.2879 14.7666 70.9229 14.1368Z" fill="white"/>
<path d="M159.29 48.6647C159.506 48.5479 159.839 48.3084 160.119 48.0911L166.656 59.7668L164.046 60.5219L164.471 61.2751L167.898 61.9819L167.902 61.9897L167.91 61.9884L167.931 61.9897L168.587 61.6334L168.437 59.3674L166.948 58.6834V58.6873L165.909 56.8378C166.646 57.0649 168.133 57.4695 170.131 57.6973L169.57 54.9901C169.57 54.9901 166.709 55.7687 165.251 55.6597L162.587 50.8955C162.684 50.9686 162.794 51.0227 162.915 51.0501C164.997 51.509 164.347 46.22 164.347 46.22L163.824 46.094C163.069 48.5943 162.417 48.978 162.24 49.8186C162.213 49.9733 162.213 50.1227 162.235 50.2624L160.729 47.5742C161.003 47.289 161.312 46.9274 161.312 46.9274L161.024 46.4242L160.91 46.4686C159.166 47.0534 158.351 46.4125 157.324 46.9816C156.834 47.259 156.447 47.9175 156.793 48.529C157.275 49.397 158.222 49.26 159.29 48.6647Z" fill="white"/>
<path d="M165.185 53.9374C167.173 54.3401 166.652 49.3644 166.652 49.3644L166.157 49.2456C165.399 51.601 164.737 52.0095 164.566 52.7868C164.435 53.3559 164.732 53.8441 165.185 53.9374Z" fill="white"/>
<path d="M151.536 58.6652C153.565 61.4017 155.594 60.3059 155.594 60.3059L158.6 58.6436L161.888 64.52L162.566 64.1349L162.57 64.1447V64.1349V64.1304L162.417 61.8938L160.942 61.2196L159.285 58.2625L160.328 57.6849L163.448 59.06L164.135 58.6782L159.494 50.3903L158.809 50.7721L162.232 56.8887L159.251 55.7557L159.243 55.7387L158.198 56.3202L154.206 49.1967L153.521 49.5739L157.513 56.7033L154.51 58.3656C154.196 58.5399 154.053 58.3304 153.802 57.8853C153.573 57.4787 152.637 55.5064 152.434 55.0926L151.868 55.4098C153.09 58.2905 151.536 58.6652 151.536 58.6652Z" fill="white"/>
<path d="M112.81 17.5749L109.888 16.8564L109.696 17.6154L110.035 17.6989C110.027 19.9147 110.534 21.776 111.251 23.3175C108.227 25.1475 105.489 25.6279 105.489 25.6279L105.324 26.3177C107.907 26.6179 110.246 26.0077 112.234 25.0705C114.024 27.7548 116.262 29.0366 116.262 29.0366C116.934 27.8129 117.934 27.7411 118.171 27.7411L118.304 27.1975C116.401 26.3569 115.006 25.2643 113.962 24.1255C116.874 22.3027 118.673 20.0387 118.81 19.8644L118.826 19.8683L119.01 19.1015L114.981 18.1094L115.591 15.6359L120.67 16.891L120.86 16.128L120.87 16.1261L119.102 14.7027L117.593 15.324L115.783 14.8763L116.651 11.3709L114.479 10.8364L113.611 14.3418L110.683 13.6212L110.495 14.3822L113.424 15.1027L112.81 17.5749ZM112.643 22.3901C111.346 20.2925 111.068 18.3888 111.021 17.9437L115.925 19.1524C114.93 20.472 113.794 21.5397 112.643 22.3901Z" fill="white"/>
<path d="M102.263 25.5705L102.848 25.714L102.846 25.718L105.018 26.2505L106.988 18.2974C107.983 18.0357 108.739 17.7995 109.174 17.6565L109.371 16.8407C108.668 16.9478 107.966 17.0248 107.287 17.0868L108.104 13.7962L110.01 14.2654L110.195 13.5123L108.289 13.043L109.16 9.52986L106.99 8.99927L106.119 12.5085L103.614 11.8911L103.426 12.6482L105.935 13.2623L104.952 17.2284C103.069 17.2963 101.739 17.2343 101.739 17.2343L101.89 19.3319C102.848 19.1929 103.733 19.0317 104.546 18.8672L103.53 22.9697L103.559 22.8065C103.402 23.4363 103.3 23.6491 102.082 23.3567C101.533 23.2196 101.029 23.0487 101.029 23.0487L100.915 23.527C102.437 24.2201 102.263 25.5705 102.263 25.5705Z" fill="white"/>
<path d="M40.8517 29.7089C40.9395 27.7738 36.5519 29.0954 36.5519 29.0954L36.5192 29.5953C38.8713 29.9497 39.0843 30.4255 39.8513 30.4764C40.4131 30.4992 40.8314 30.1566 40.8517 29.7089Z" fill="white"/>
<path d="M37.7876 33.0236L37.7477 33.5196C40.1063 33.8779 40.3154 34.3485 41.0798 34.4079C41.6462 34.4314 42.0625 34.077 42.0762 33.6319C42.166 31.6929 37.7876 33.0236 37.7876 33.0236Z" fill="white"/>
<path d="M57.8467 30.1253L57.3596 29.5189L56.1167 30.4953L54.0163 27.8417L55.2579 26.8679L54.7696 26.2505L53.528 27.2223L50.9327 23.9415L49.6137 24.9838L44.3234 29.1319C44.3123 28.5759 44.2848 27.9774 44.2172 27.3509L51.2657 21.825L50.7753 21.201L48.5563 21.7029L48.1217 23.2778L48.144 23.268L44.0973 26.4476C43.9878 25.7447 43.8351 25.0262 43.6161 24.3122L41.3322 25.331C41.3322 25.331 43.2634 28.7299 43.4863 32.4232L44.1051 32.4297C44.1051 32.4297 44.1871 31.9605 44.2513 31.1995L45.8692 33.239L44.4663 34.3393L44.9547 34.9607L46.3596 33.857L48.4547 36.5087L48.4508 36.5107L48.9372 37.1209L48.9391 37.1189L49.1981 37.4459L50.949 36.0695L50.6921 35.7419L54.8456 32.4845C55.3012 33.085 55.4749 33.5457 54.7558 34.1051C53.8013 34.8562 52.1402 36.1563 52.1402 36.1563L52.4509 36.542C52.4509 36.542 54.7656 35.0116 55.5988 36.0623C55.5988 36.0623 58.5907 33.6639 56.5953 31.1094L57.8467 30.1253ZM45.5067 29.1998L49.6609 25.936L51.7724 28.6033L50.8599 29.3179C50.8638 29.2951 50.875 29.2755 50.8782 29.254C50.9641 27.3078 46.5824 28.6477 46.5824 28.6477L46.5444 29.1313C48.9031 29.4902 49.1102 29.9719 49.8766 30.015C49.9185 30.0169 49.9467 30.0052 49.9867 30.0052L47.6182 31.8645L45.5067 29.1998ZM53.4722 32.5694C53.4742 32.5596 53.4801 32.5485 53.4801 32.5368C53.562 30.6056 49.1856 31.9344 49.1856 31.9344L49.1469 32.4141C51.5063 32.775 51.7134 33.2527 52.4856 33.299C52.5099 33.301 52.5256 33.2912 52.5519 33.2912L50.207 35.131L48.1099 32.4813L52.2654 29.2174L54.3435 31.8404L54.3356 31.8423C54.3435 31.8521 54.3494 31.8632 54.3585 31.873L53.4722 32.5694Z" fill="white"/>
<path d="M41.7 38.1149L42.1411 38.6722C42.1411 38.6722 43.8397 37.874 46.1564 40.8051C46.9076 41.7481 47.4694 42.4399 47.4694 42.4399L48.6291 41.5308C48.6291 41.5308 45.8941 37.9902 45.0196 36.7724C44.2061 35.6375 42.111 29.2612 41.7825 28.245L41.167 28.7345C41.6744 30.3772 43.1953 35.3973 43.1094 36.5322C43.0287 37.5973 41.7 38.1149 41.7 38.1149Z" fill="white"/>
<path d="M148.197 35.1049L147.194 33.0759L145.561 33.0113L145.573 33.0308L142.063 30.2421C143.999 28.4734 145.254 26.7381 145.606 26.2271L143.527 24.5791C142.417 26.2603 141.277 27.6159 140.141 28.7162L134.58 24.2979L134.093 24.9061L139.558 29.2507C134.644 33.6489 129.883 33.3545 127.671 32.8879L127.102 33.6025C132.938 36.2366 137.981 33.6959 141.34 30.8752C136.891 37.1275 139.397 43.366 139.397 43.366C140.982 42.3323 142.2 43.68 142.2 43.68L142.6 43.1722C139.418 38.1364 141.795 31.9116 142.067 31.2478L147.706 35.7275L148.194 35.1154L148.163 35.0919L148.197 35.1049Z" fill="white"/>
</svg>
