<svg width="292" height="74" viewBox="0 0 292 74" fill="none" xmlns="http://www.w3.org/2000/svg">
<path d="M37.9791 33.9667L33.6325 31.9178L30.8477 33.9667H20.2937V17.0374H34.9355V15.3725H34.9282L34.9355 15.3656L30.5808 13.3126L27.7806 15.3725H20.2937V0.937622H15.5579V33.9667H0V35.6325H15.5579H20.2937H37.9884V33.9667H37.9791Z" fill="white"/>
<path d="M110.894 37.581H115.63V18.3379C117.836 20.9737 117.769 21.9088 118.824 22.8533C119.711 23.6443 120.873 23.6034 121.491 22.8821C123.8 20.19 117.464 17.2189 115.63 16.4323V14.1226H121.375V12.458H115.63V6.24117C117.771 5.69441 119.756 5.01076 121.115 4.16187L117.053 0.969604C117.053 0.969604 111.848 4.71713 104.149 6.66076V8.08395C104.149 8.08395 107.229 7.83649 110.894 7.22088V12.458H104.149V14.1226H109.856C109.483 15.4927 106.993 24.2717 103.399 29.4926L104.443 30.3245C104.443 30.3245 108.221 26.5794 110.894 21.7225V37.581H110.894Z" fill="white"/>
<path d="M141.878 25.8848V24.2186H136.029V0.974915H131.293V24.2186H118.303V25.8848H131.293V37.5798H136.029V25.8848H141.878Z" fill="white"/>
<path d="M127.077 11.3199C128.044 12.0121 129.192 11.8489 129.728 11.07C132.08 7.67931 122.729 5.11926 122.729 5.11926L122.106 5.9556C125.923 9.26774 125.753 10.3605 127.077 11.3199Z" fill="white"/>
<path d="M123.088 14.0768L122.387 14.8472C125.834 18.5396 125.552 19.6104 126.769 20.7003C127.658 21.4925 128.815 21.4496 129.435 20.7279C132.125 17.6032 123.088 14.0768 123.088 14.0768Z" fill="white"/>
<path d="M226.335 13.8942H241.609V12.2272H241.578L241.609 12.2142L237.253 10.1588L234.448 12.2272H224.991C225.825 6.84746 225.63 2.37862 225.532 0.951782H219.914C220.296 5.17924 220.212 8.91704 219.801 12.2272H204.712V13.8942H219.561C217.274 27.7114 208.974 33.4932 204.692 35.6325V37.5725C217.811 34.2648 222.793 23.4305 224.621 14.3162C225.587 30.5331 238.001 37.5704 238.001 37.5704C239.249 33.7504 243.049 34.3863 243.049 34.3863V33.0068C231.145 28.8584 226.803 15.4522 226.335 13.8942Z" fill="white"/>
<path d="M292 9.12891L287.641 7.07107L284.872 9.1119H280.355C281.554 7.97262 283.839 5.62641 286.297 2.20816L280.679 0.439087C280.679 0.439087 279.172 6.52674 277.47 9.1119H265.882C266.117 9.01227 266.329 8.86565 266.499 8.67206C269.499 5.30322 259.011 1.0146 259.011 1.0146L258.23 1.84406C262.1 5.84147 262.15 7.44611 263.514 8.62548C263.773 8.84783 264.047 9.00741 264.331 9.1119H257.785C257.547 8.31363 257.196 7.37037 257.196 7.37037H255.951L255.912 7.62755C255.213 11.4642 253.177 12.3021 253.177 14.8059C253.177 15.9836 254.009 17.3886 255.511 17.3886C257.615 17.3886 258.334 15.5005 258.334 12.9019C258.334 12.3803 258.235 11.5197 258.126 10.7781H286.543L285.256 16.3899H287.105L291.956 10.7781H291.964V10.7708L292 10.7287V9.12891H292Z" fill="white"/>
<path d="M271.432 7.41972C272.355 8.24877 273.562 8.19976 274.206 7.45212C276.999 4.19465 267.222 0 267.222 0L266.49 0.802724C270.079 4.63935 270.165 6.28854 271.432 7.41972Z" fill="white"/>
<path d="M276.146 31.7938V24.5147H290.446V22.8659H290.478L286.125 20.8129L283.35 22.8537H276.146V20.3224L281.922 15.9739V14.3069H261.761V15.9739H276.646L271.465 20.318H271.427V22.8541H254.074V24.5155H271.427V31.7947C271.427 32.5565 270.891 32.6083 269.799 32.6083C268.821 32.6083 264.181 32.3029 263.205 32.2418V33.6144C269.811 34.3381 268.913 37.6073 268.913 37.6073C276.095 36.6879 276.146 31.7938 276.146 31.7938Z" fill="white"/>
<path d="M169.469 17.7271V15.9423C168.073 16.5194 166.671 17.0386 165.303 17.5072V10.3018H169.469V8.63353H165.303V0.949341H160.572V8.63353H155.104V10.3018H160.572V18.9904C156.738 20.0839 153.978 20.625 153.978 20.625L155.349 24.8775C157.245 24.1011 158.989 23.3183 160.572 22.5674V31.6168L160.553 31.207C160.553 32.5965 160.449 33.0866 157.795 33.0866C156.596 33.0866 155.483 32.9785 155.483 32.9785V34.0408C158.968 34.6933 159.293 37.5672 159.293 37.5672H160.572V37.5806H165.303V20.156C167.231 19.1082 168.647 18.2464 169.469 17.7271Z" fill="white"/>
<path d="M193.114 32.8067C188.77 32.0364 185.32 30.497 182.597 28.6733C187.546 23.5528 190.108 18.0503 190.411 17.3809H190.443V15.7139H181.644V10.303H192.731V8.63474H192.743L188.387 6.58501L185.596 8.63474H181.644V0.949341H176.911V8.63474H170.516V10.303H176.911V15.7139H170.526V17.3809H171.266C172.374 21.9566 174.357 25.5673 176.624 28.3893C171.338 33.688 165.963 36.0533 165.963 36.0533V37.5579C171.425 36.8682 175.932 34.4401 179.535 31.4941C184.595 36.1323 189.85 37.6154 189.85 37.6154C190.618 34.7739 192.629 34.1007 193.113 33.9784V32.8067H193.114ZM173.411 17.3809H184.135C182.758 20.6274 180.952 23.4086 179.015 25.7596C175.277 22.0915 173.743 18.2921 173.411 17.3809Z" fill="white"/>
<path d="M85.5479 11.209H84.5763H80.8093H69.6057H67.7126C68.4323 10.267 69.1751 9.22491 69.8952 8.08643H88.8917V6.42064H88.875L88.8941 6.41214L84.5423 4.36038L81.7494 6.41214L81.7716 6.42064H70.8907C71.6287 5.10964 72.3188 3.70912 72.8919 2.22802L67.7669 0.92511C67.7669 0.92511 66.4847 9.14877 62.0085 15.5981L63.013 16.43C63.013 16.43 63.7634 15.7593 64.8715 14.5742V20.0864H61.107V21.7546H64.8715V28.937V30.6007V31.4804H69.6057V30.6007H80.8138C80.7749 32.2042 80.4602 33.1944 78.5223 33.1944H71.478V34.2341C71.478 34.2341 77.3421 34.718 77.3421 37.5632C77.3421 37.5632 85.49 37.4855 85.5277 30.6007H88.8937V28.937H85.5475V21.7546H88.8937V20.0864H85.5475V11.209H85.5479ZM80.8093 28.9378H78.4263C78.4384 28.926 78.4526 28.9159 78.4652 28.903C81.1605 25.7755 72.1199 22.2515 72.1199 22.2515L71.4185 23.0194C74.8655 26.7103 74.582 27.7827 75.8014 28.8702C75.829 28.8965 75.8614 28.9143 75.8893 28.9374H69.6057V21.755H80.8093V28.9378ZM80.8093 20.0868H78.3736C78.4036 20.058 78.4372 20.0325 78.4652 20.0001C81.1605 16.8722 72.1199 13.3535 72.1199 13.3535L71.4185 14.1178C74.8655 17.8078 74.582 18.8827 75.8014 19.9689C75.8521 20.0143 75.9063 20.0455 75.9582 20.0868H69.6057V12.8728H80.8093V20.0868Z" fill="white"/>
<path d="M58.5226 7.58659C59.412 8.37879 60.5732 8.33424 61.1872 7.61657C63.8821 4.48668 54.8448 0.963928 54.8448 0.963928L54.1417 1.73385C57.5862 5.42791 57.3076 6.49551 58.5226 7.58659Z" fill="white"/>
<path d="M55.4012 15.7548C56.2918 16.5506 57.4481 16.5053 58.067 15.786C60.7607 12.6561 51.7246 9.14062 51.7246 9.14062L51.0166 9.90406C54.4685 13.5961 54.185 14.6657 55.4012 15.7548Z" fill="white"/>
<path d="M62.9983 6.39628C61.6784 9.82182 57.5874 20.2042 55.9549 21.9854C54.4223 23.6475 51.5294 22.78 51.5294 22.78V24.2907C51.5294 24.2907 55.4077 25.1655 55.4077 33.1081C55.4077 35.6657 55.434 37.5648 55.434 37.5648L58.5566 37.5469C58.5566 37.5469 58.6615 28.0682 58.8166 24.8986C58.9596 21.9299 63.8776 8.52216 64.6649 6.39587H62.9983V6.39628Z" fill="white"/>
<path d="M6.09048 58.7693C4.91839 58.4242 4.13349 57.8297 4.13349 56.6515C4.13349 54.9926 5.8163 53.8606 7.14796 53.8606C9.81007 53.8606 11.1624 55.1777 11.5816 57.4109H13.5758C13.5758 53.9785 10.678 52.1616 7.26338 52.1616C4.29589 52.1616 1.25593 53.6828 1.25593 57.0002C1.25593 58.7033 2.0635 60.4302 4.89288 61.1682C7.17306 61.7882 10.8858 62.3888 11.1563 64.7269C11.3349 66.253 10.226 67.6742 7.68135 67.6742C5.58625 67.6742 2.74837 66.8484 2.45433 63.5144H0.633423C0.701869 67.5891 3.74306 69.3869 7.49747 69.3869C10.7416 69.3869 14.0363 67.9103 14.0363 64.2296C14.0363 60.152 9.09036 59.6546 6.09048 58.7693Z" fill="white"/>
<path d="M255.36 61.2629C254.499 61.0313 253.694 60.5858 253.871 59.6976C254.028 58.924 255.016 58.4676 256.071 58.4676C257.533 58.4676 258.947 58.9629 259.252 60.5898H260.757C260.757 58.0893 258.644 56.7589 256.155 56.7589C253.992 56.7589 251.773 57.8686 251.773 60.2861C251.773 61.4788 252.223 62.7643 254.567 63.4224C257.629 64.2904 258.968 64.938 258.968 66.1704C258.968 66.9464 258.112 67.6163 256.461 67.6163C255.199 67.6163 253.028 67.4684 252.816 65.0392H251.323C251.374 68.0055 253.588 69.3177 256.326 69.3177C258.689 69.3177 261.093 68.242 261.093 65.5556C261.092 63.7339 259.787 62.4549 255.36 61.2629Z" fill="white"/>
<path d="M23.7986 56.7697C22.2337 56.7697 20.8741 57.5765 20.2297 58.657H20.1831V52.5536H17.5583V68.996H20.1831V61.974C20.1831 60.2228 21.3115 58.4618 23.0615 58.4618C24.6313 58.4618 25.3186 59.6477 25.3858 61.5127V68.996H28.0143V60.823C28.0148 58.1269 26.402 56.7697 23.7986 56.7697Z" fill="white"/>
<path d="M158.293 56.7697C156.731 56.7697 155.368 57.5765 154.723 58.657H154.678V52.5536H152.055V68.996H154.678V61.974C154.678 60.2228 155.808 58.4618 157.556 58.4618C159.121 58.4618 159.811 59.6477 159.883 61.5127V68.996H162.507V60.823C162.507 58.1269 160.894 56.7697 158.293 56.7697Z" fill="white"/>
<path d="M82.1333 56.7697C80.5663 56.7697 79.2043 57.5765 78.5611 58.657H78.5166V52.5536H75.8905V68.996H78.5166V61.974C78.5166 60.2228 79.6433 58.4618 81.3909 58.4618C82.9635 58.4618 83.6508 59.6477 83.7181 61.5127V68.996H86.3462V60.823C86.3458 58.1269 84.7326 56.7697 82.1333 56.7697Z" fill="white"/>
<path d="M52.5816 56.7698C51.0179 56.7698 49.6801 57.5765 48.8762 58.8876L48.8292 58.841V57.0873H46.3425V68.9961H48.9673V61.9741C48.9673 60.2229 50.0944 58.4619 51.8445 58.4619C53.4119 58.4619 54.1028 59.6478 54.1724 61.5128V68.9961H56.7973V60.8231C56.7977 58.127 55.185 56.7698 52.5816 56.7698Z" fill="white"/>
<path d="M199.116 56.7698C197.549 56.7698 196.214 57.5765 195.404 58.8876L195.361 58.841V57.0873H192.875V68.9961H195.495V61.9741C195.495 60.2229 196.628 58.4619 198.375 58.4619C199.94 58.4619 200.633 59.6478 200.7 61.5128V68.9961H203.327V60.8231C203.327 58.127 201.717 56.7698 199.116 56.7698Z" fill="white"/>
<path d="M69.3258 58.7268H69.2776C68.6097 57.3684 67.2501 56.7698 65.7524 56.7698C62.369 56.7698 60.3642 59.5344 60.3642 62.7371C60.3642 66.1424 61.9324 68.9957 65.7066 68.9957C67.1825 68.9957 68.5392 68.2116 69.2772 66.897H69.3254V68.7203C69.3254 70.6773 68.3829 72.0219 66.2591 72.0219C64.697 72.0219 63.1798 71.5274 62.7882 70.007H60.7785C61.0308 72.7963 63.7031 73.7161 66.1007 73.7161C69.8762 73.7161 71.9474 71.9689 71.9474 68.3736V57.0885H69.3258V58.7268ZM66.1222 67.3048C63.9359 67.3048 62.9903 64.923 62.9903 62.985C62.9903 61.0066 63.7808 58.4595 66.108 58.4595C68.3902 58.4595 69.3254 60.7291 69.3254 62.7785C69.3254 64.8278 68.4481 67.3048 66.1222 67.3048Z" fill="white"/>
<path d="M107.456 57.0885H104.831V68.9941H107.456V57.0885Z" fill="white"/>
<path d="M107.456 52.5536H104.831V55.0407H107.456V52.5536Z" fill="white"/>
<path d="M123.808 52.5536H110.495V54.2477H115.699V68.994H118.581V54.2477H123.808V52.5536Z" fill="white"/>
<path d="M129.353 56.7714C125.807 56.7714 123.596 59.6712 123.596 63.0562C123.596 66.7386 125.67 69.3181 129.426 69.3181C132.003 69.3181 134.26 67.8641 134.81 65.2656H132.899C132.438 66.5762 131.075 67.6717 129.426 67.6284C126.887 67.5547 126.041 65.2291 126.142 63.3807H135.029C135.471 59.8097 133.108 56.7714 129.353 56.7714ZM126.223 61.6813C126.293 59.9045 127.538 58.4096 129.353 58.4696C131.288 58.5352 132.233 60.0232 132.348 61.6813H126.223Z" fill="white"/>
<path d="M233.039 56.7714C229.489 56.7714 227.279 59.6712 227.279 63.0562C227.279 66.7386 229.354 69.3181 233.106 69.3181C235.684 69.3181 237.938 67.8641 238.491 65.2656H236.581C236.119 66.5762 234.758 67.6717 233.106 67.6284C230.57 67.5547 229.722 65.2291 229.825 63.3807H238.715C239.152 59.8097 236.792 56.7714 233.039 56.7714ZM229.904 61.6813C229.974 59.9045 231.217 58.4096 233.039 58.4696C234.969 58.5352 235.915 60.0232 236.032 61.6813H229.904Z" fill="white"/>
<path d="M143.646 58.4862C144.919 58.3922 146.481 58.8754 147.07 61.0616L149.017 61.075C148.765 58.1512 146.416 56.7693 143.654 56.7693C139.738 56.7693 137.784 59.5797 137.784 63.1713C137.784 66.6677 139.829 69.3177 143.563 69.3177C146.623 69.3177 148.539 67.6397 149.017 64.5297H147.034C146.784 66.2558 145.573 67.7604 143.563 67.6195C141.289 67.4595 140.407 65.1497 140.407 63.1717C140.406 59.5801 142.291 58.5866 143.646 58.4862Z" fill="white"/>
<path d="M185.721 62.1312C185.721 64.3445 185.585 67.6935 181.852 67.6935C178.125 67.6935 177.986 64.3441 177.986 62.1312V52.5536H175.108V63.0813C175.108 67.295 177.801 69.3873 181.852 69.3873C185.907 69.3873 188.601 67.295 188.601 63.0813V52.5536H185.721V62.1312Z" fill="white"/>
<path d="M210.224 52.5536H207.599V55.0407H210.224V52.5536Z" fill="white"/>
<path d="M210.224 57.0885H207.599V68.9941H210.224V57.0885Z" fill="white"/>
<path d="M219.806 66.2328H219.76L216.14 57.0869H213.281L217.616 68.9957H220.69L224.82 57.0869H222.814L219.806 66.2328Z" fill="white"/>
<path d="M244.893 59.3951H244.847V57.0869H242.383V68.9958H245.011V63.3297C245.011 60.6806 246.457 58.7037 248.232 58.7037C248.599 58.7037 248.994 58.7458 249.359 58.8143V57.0533C249.109 57.0311 248.994 56.9885 248.371 56.9885C246.783 56.9889 245.193 58.127 244.893 59.3951Z" fill="white"/>
<path d="M267.05 57.0885H264.422V68.9941H267.05V57.0885Z" fill="white"/>
<path d="M267.05 52.5536H264.422V55.0407H267.05V52.5536Z" fill="white"/>
<path d="M274.691 53.5208H272.064V56.984H270.088V58.6806H272.064V66.0711C272.136 68.0512 272.595 69.1136 275.357 69.1136C275.935 69.1136 276.487 69.0423 277.062 68.9742V67.2157C276.699 67.3044 276.326 67.3044 275.956 67.3044C274.785 67.3044 274.691 66.754 274.691 65.671V58.6806H277.062V56.984H274.691V53.5208H274.691Z" fill="white"/>
<path d="M42.1324 66.4154C42.1324 66.3923 42.1312 66.3721 42.1312 66.349V60.2216C42.1312 57.7062 39.6866 56.7698 37.3635 56.7698C34.7131 56.7698 32.134 57.6644 31.9502 60.7287H33.6281C34.1485 58.5121 36.0031 58.3874 37.2003 58.5052C38.235 58.6041 39.6639 59.0722 39.6639 60.4505C39.6639 62.0174 38.0066 61.7627 36.0946 62.1304C33.8853 62.3852 31.5103 62.8732 31.5103 65.8452C31.5103 68.1667 33.4454 69.3177 35.5871 69.3177C36.9888 69.3177 38.6631 68.8868 39.6991 67.8755V69.3177H42.134V67.3291H42.1328V66.4154H42.1324ZM39.5039 64.991C39.5039 66.6491 37.7069 67.6353 36.5559 67.6353C35.6329 67.6353 34.1388 66.9225 34.1388 65.7265C34.1388 64.3446 35.1517 63.9287 36.2793 63.7497C37.4522 63.5378 38.6976 63.5621 39.5039 63.0336V64.991Z" fill="white"/>
<path d="M100.683 66.4154V66.349V60.2216C100.683 57.7062 98.2424 56.7698 95.9181 56.7698C93.2665 56.7698 90.6895 57.6644 90.5019 60.7287H92.1819C92.704 58.5121 94.5573 58.3874 95.7541 58.5052C96.7856 58.6041 98.2205 59.0722 98.2205 60.4505C98.2205 62.0174 96.5616 61.7627 94.6484 62.1304C92.4415 62.3852 90.069 62.8732 90.069 65.8452C90.069 68.1667 91.9992 69.3177 94.1389 69.3177C95.5455 69.3177 97.2186 68.8868 98.2538 67.8755V69.3177H100.687V67.3291H100.682V66.4154H100.683ZM98.0569 64.991C98.0569 66.6491 96.2591 67.6353 95.1073 67.6353C94.1875 67.6353 92.6914 66.9225 92.6914 65.7265C92.6914 64.3446 93.7063 63.9287 94.8335 63.7497C96.0064 63.5378 97.2542 63.5621 98.0569 63.0336V64.991Z" fill="white"/>
<path d="M285.506 65.9788H285.459L281.896 57.0885H279.018L283.985 68.9515L282.208 73.7667H284.581C284.721 73.437 290.812 57.0885 290.812 57.0885H288.629L285.506 65.9788Z" fill="white"/>
</svg>
